Exo2-Light.ufo
<glyph name="quotesingle" format="2">
  <advance width="200"/>
  <unicode hex="0027"/>
  <outline>
    <contour>
      <point x="112" y="690" type="line"/>
      <point x="88" y="690" type="line"/>
      <point x="90" y="482" type="line"/>
      <point x="110" y="482" type="line"/>
    </contour>
  </outline>
</glyph>
<glyph name="asterisk" format="2">
  <advance width="453"/>
  <unicode hex="002A"/>
  <outline>
    <contour>
      <point x="239" y="690" type="line"/>
      <point x="215" y="690" type="line"/>
      <point x="218" y="537" type="line"/>
      <point x="124" y="409" type="line"/>
      <point x="143" y="396" type="line"/>
      <point x="226" y="520" type="line"/>
      <point x="310" y="395" type="line"/>
      <point x="328" y="408" type="line"/>
      <point x="234" y="537" type="line"/>
    </contour>
    <contour>
      <point x="80" y="592" type="line"/>
      <point x="72" y="570" type="line"/>
      <point x="197" y="531" type="line"/>
      <point x="201" y="539" type="line"/>
      <point x="202" y="548" type="line"/>
    </contour>
    <contour>
      <point x="374" y="590" type="line"/>
      <point x="251" y="548" type="line"/>
      <point x="251" y="539" type="line"/>
      <point x="255" y="531" type="line"/>
      <point x="382" y="568" type="line"/>
    </contour>
  </outline>
</glyph>
<glyph name="slash" format="2">
  <advance width="494"/>
  <unicode hex="002F"/>
  <outline>
    <contour>
      <point x="456" y="690" type="line"/>
      <point x="431" y="690" type="line"/>
      <point x="38" y="-59" type="line"/>
      <point x="63" y="-59" type="line"/>
    </contour>
  </outline>
</glyph>
<glyph name="zero" format="2">
  <advance width="584"/>
  <unicode hex="0030"/>
  <outline>
    <contour>
      <point x="292" y="702" type="curve" smooth="yes"/>
      <point x="131" y="702"/>
      <point x="77" y="588"/>
      <point x="77" y="345" type="curve" smooth="yes"/>
      <point x="77" y="102"/>
      <point x="131" y="-12"/>
      <point x="292" y="-12" type="curve" smooth="yes"/>
      <point x="453" y="-12"/>
      <point x="507" y="102"/>
      <point x="507" y="345" type="curve" smooth="yes"/>
      <point x="507" y="588"/>
      <point x="453" y="702"/>
    </contour>
    <contour>
      <point x="292" y="679" type="curve" smooth="yes"/>
      <point x="434" y="679"/>
      <point x="481" y="573"/>
      <point x="481" y="345" type="curve" smooth="yes"/>
      <point x="481" y="117"/>
      <point x="434" y="11"/>
      <point x="292" y="11" type="curve" smooth="yes"/>
      <point x="150" y="11"/>
      <point x="103" y="117"/>
      <point x="103" y="345" type="curve" smooth="yes"/>
      <point x="103" y="573"/>
      <point x="150" y="679"/>
    </contour>
  </outline>
</glyph>
<glyph name="six" format="2">
  <advance width="564"/>
  <unicode hex="0036"/>
  <outline>
    <contour>
      <point x="334" y="702" type="curve" smooth="yes"/>
      <point x="151" y="702"/>
      <point x="81" y="651"/>
      <point x="81" y="302" type="curve" smooth="yes"/>
      <point x="81" y="73"/>
      <point x="111" y="-12"/>
      <point x="293" y="-12" type="curve" smooth="yes"/>
      <point x="471" y="-12"/>
      <point x="497" y="70"/>
      <point x="497" y="206" type="curve" smooth="yes"/>
      <point x="497" y="382"/>
      <point x="453" y="441"/>
      <point x="310" y="441" type="curve" smooth="yes"/>
      <point x="214" y="441"/>
      <point x="161" y="414"/>
      <point x="95" y="325" type="curve"/>
      <point x="99" y="309" type="line"/>
      <point x="174" y="397"/>
      <point x="229" y="419"/>
      <point x="308" y="419" type="curve" smooth="yes"/>
      <point x="439" y="419"/>
      <point x="472" y="360"/>
      <point x="472" y="209" type="curve" smooth="yes"/>
      <point x="472" y="83"/>
      <point x="449" y="10"/>
      <point x="294" y="10" type="curve" smooth="yes"/>
      <point x="128" y="10"/>
      <point x="107" y="94"/>
      <point x="107" y="299" type="curve" smooth="yes"/>
      <point x="107" y="627"/>
      <point x="161" y="679"/>
      <point x="334" y="679" type="curve" smooth="yes"/>
      <point x="384" y="679"/>
      <point x="407" y="679"/>
      <point x="445" y="672" type="curve"/>
      <point x="453" y="690" type="line"/>
      <point x="405" y="702"/>
      <point x="358" y="702"/>
    </contour>
  </outline>
</glyph>
<glyph name="seven" format="2">
  <advance width="505"/>
  <unicode hex="0037"/>
  <outline>
    <contour>
      <point x="425" y="690" type="curve" smooth="yes"/>
      <point x="48" y="690" type="line"/>
      <point x="50" y="668" type="line"/>
      <point x="436" y="668" type="line"/>
      <point x="432" y="655"/>
      <point x="427" y="643"/>
      <point x="423" y="630" type="curve"/>
      <point x="204" y="0" type="line"/>
      <point x="229" y="0" type="line"/>
      <point x="455" y="649" type="line" smooth="yes"/>
      <point x="465" y="679"/>
      <point x="458" y="690"/>
    </contour>
  </outline>
</glyph>
<glyph name="nine" format="2">
  <advance width="565"/>
  <unicode hex="0039"/>
  <outline>
    <contour>
      <point x="270" y="702" type="curve" smooth="yes"/>
      <point x="108" y="702"/>
      <point x="67" y="616"/>
      <point x="67" y="474" type="curve" smooth="yes"/>
      <point x="67" y="328"/>
      <point x="114" y="249"/>
      <point x="252" y="249" type="curve" smooth="yes"/>
      <point x="347" y="249"/>
      <point x="400" y="276"/>
      <point x="466" y="365" type="curve"/>
      <point x="462" y="381" type="line"/>
      <point x="387" y="293"/>
      <point x="332" y="271"/>
      <point x="254" y="271" type="curve" smooth="yes"/>
      <point x="128" y="271"/>
      <point x="92" y="345"/>
      <point x="92" y="472" type="curve" smooth="yes"/>
      <point x="92" y="601"/>
      <point x="125" y="680"/>
      <point x="270" y="680" type="curve" smooth="yes"/>
      <point x="448" y="680"/>
      <point x="454" y="597"/>
      <point x="454" y="351" type="curve" smooth="yes"/>
      <point x="454" y="54"/>
      <point x="390" y="11"/>
      <point x="227" y="11" type="curve" smooth="yes"/>
      <point x="169" y="11"/>
      <point x="151" y="13"/>
      <point x="110" y="18" type="curve"/>
      <point x="102" y="0" type="line"/>
      <point x="154" y="-12"/>
      <point x="201" y="-12"/>
      <point x="227" y="-12" type="curve" smooth="yes"/>
      <point x="406" y="-12"/>
      <point x="480" y="37"/>
      <point x="480" y="354" type="curve" smooth="yes"/>
      <point x="480" y="617"/>
      <point x="465" y="702"/>
    </contour>
  </outline>
</glyph>
<glyph name="less" format="2">
  <advance width="541"/>
  <unicode hex="003C"/>
  <outline>
    <contour>
      <point x="458" y="489" type="line"/>
      <point x="65" y="306" type="line"/>
      <point x="65" y="284" type="line"/>
      <point x="458" y="107" type="line"/>
      <point x="458" y="129" type="line"/>
      <point x="89" y="295" type="line"/>
      <point x="458" y="467" type="line"/>
    </contour>
  </outline>
</glyph>
<glyph name="greater" format="2">
  <advance width="541"/>
  <unicode hex="003E"/>
  <outline>
    <contour>
      <point x="83" y="489" type="line"/>
      <point x="83" y="467" type="line"/>
      <point x="452" y="295" type="line"/>
      <point x="83" y="129" type="line"/>
      <point x="83" y="107" type="line"/>
      <point x="476" y="284" type="line"/>
      <point x="476" y="306" type="line"/>
    </contour>
  </outline>
</glyph>
<glyph name="question" format="2">
  <advance width="507"/>
  <unicode hex="003F"/>
  <outline>
    <contour>
      <point x="253" y="712" type="curve" smooth="yes"/>
      <point x="143" y="712"/>
      <point x="114" y="704"/>
      <point x="50" y="694" type="curve"/>
      <point x="55" y="676" type="line"/>
      <point x="122" y="685"/>
      <point x="152" y="690"/>
      <point x="253" y="690" type="curve" smooth="yes"/>
      <point x="370" y="690"/>
      <point x="424" y="648"/>
      <point x="424" y="557" type="curve" smooth="yes"/>
      <point x="424" y="415"/>
      <point x="235" y="397"/>
      <point x="235" y="203" type="curve"/>
      <point x="259" y="203" type="line"/>
      <point x="259" y="380"/>
      <point x="449" y="404"/>
      <point x="449" y="557" type="curve" smooth="yes"/>
      <point x="449" y="663"/>
      <point x="381" y="712"/>
    </contour>
    <contour>
      <point x="251" y="86" type="curve" smooth="yes"/>
      <point x="241" y="86" type="line" smooth="yes"/>
      <point x="233" y="86"/>
      <point x="229" y="82"/>
      <point x="229" y="74" type="curve" smooth="yes"/>
      <point x="229" y="12" type="line" smooth="yes"/>
      <point x="229" y="4"/>
      <point x="233" y="0"/>
      <point x="241" y="0" type="curve" smooth="yes"/>
      <point x="251" y="0" type="line" smooth="yes"/>
      <point x="259" y="0"/>
      <point x="263" y="4"/>
      <point x="263" y="12" type="curve" smooth="yes"/>
      <point x="263" y="74" type="line" smooth="yes"/>
      <point x="263" y="82"/>
      <point x="259" y="86"/>
    </contour>
  </outline>
</glyph>
<glyph name="A" format="2">
  <advance width="603"/>
  <unicode hex="0041"/>
  <anchor x="301" y="-12" name="bottom"/>
  <anchor x="584" y="0" name="ogonek"/>
  <anchor x="302" y="740" name="top"/>
  <outline>
    <contour>
      <point x="323" y="690" type="curve" smooth="yes"/>
      <point x="280" y="690" type="line" smooth="yes"/>
      <point x="274" y="690"/>
      <point x="269" y="687"/>
      <point x="267" y="681" type="curve" smooth="yes"/>
      <point x="19" y="0" type="line"/>
      <point x="46" y="0" type="line"/>
      <point x="267" y="612" type="line" smooth="yes"/>
      <point x="274" y="631"/>
      <point x="280" y="649"/>
      <point x="287" y="668" type="curve"/>
      <point x="316" y="668" type="line"/>
      <point x="323" y="649"/>
      <point x="329" y="631"/>
      <point x="336" y="612" type="curve" smooth="yes"/>
      <point x="557" y="0" type="line"/>
      <point x="584" y="0" type="line"/>
      <point x="336" y="681" type="line" smooth="yes"/>
      <point x="334" y="687"/>
      <point x="329" y="690"/>
    </contour>
    <contour>
      <point x="476" y="274" type="line"/>
      <point x="126" y="274" type="line"/>
      <point x="126" y="252" type="line"/>
      <point x="476" y="252" type="line"/>
    </contour>
  </outline>
</glyph>
<glyph name="F" format="2">
  <advance width="530"/>
  <unicode hex="0046"/>
  <outline>
    <contour>
      <point x="202" y="690" type="curve" smooth="yes"/>
      <point x="143" y="690"/>
      <point x="100" y="647"/>
      <point x="100" y="588" type="curve" smooth="yes"/>
      <point x="100" y="0" type="line"/>
      <point x="125" y="0" type="line"/>
      <point x="125" y="586" type="line" smooth="yes"/>
      <point x="125" y="634"/>
      <point x="159" y="668"/>
      <point x="207" y="668" type="curve" smooth="yes"/>
      <point x="487" y="668" type="line"/>
      <point x="489" y="686" type="line"/>
      <point x="393" y="690"/>
      <point x="298" y="690"/>
    </contour>
    <contour>
      <point x="117" y="377" type="line"/>
      <point x="117" y="355" type="line"/>
      <point x="446" y="356" type="line"/>
      <point x="446" y="376" type="line"/>
    </contour>
  </outline>
</glyph>
<glyph name="R" format="2">
  <advance width="607"/>
  <unicode hex="0052"/>
  <anchor x="302" y="0" name="bottom"/>
  <anchor x="303" y="740" name="top"/>
  <outline>
    <contour>
      <point x="324" y="698" type="curve" smooth="yes"/>
      <point x="221" y="698"/>
      <point x="173" y="697"/>
      <point x="103" y="690" type="curve"/>
      <point x="117" y="672" type="line"/>
      <point x="144" y="674"/>
      <point x="223" y="675"/>
      <point x="324" y="675" type="curve" smooth="yes"/>
      <point x="451" y="675"/>
      <point x="497" y="640"/>
      <point x="497" y="504" type="curve" smooth="yes"/>
      <point x="497" y="370"/>
      <point x="451" y="335"/>
      <point x="324" y="333" type="curve" smooth="yes"/>
      <point x="116" y="333" type="line"/>
      <point x="113" y="315" type="line"/>
      <point x="135" y="313"/>
      <point x="218" y="310"/>
      <point x="333" y="310" type="curve" smooth="yes"/>
      <point x="386" y="310"/>
      <point x="423" y="285"/>
      <point x="446" y="218" type="curve" smooth="yes"/>
      <point x="520" y="0" type="line"/>
      <point x="548" y="0" type="line"/>
      <point x="472" y="221" type="line" smooth="yes"/>
      <point x="456" y="267"/>
      <point x="431" y="305"/>
      <point x="396" y="316" type="curve"/>
      <point x="396" y="320" type="line"/>
      <point x="484" y="333"/>
      <point x="523" y="379"/>
      <point x="523" y="504" type="curve" smooth="yes"/>
      <point x="523" y="657"/>
      <point x="470" y="698"/>
    </contour>
    <contour>
      <point x="128" y="690" type="line"/>
      <point x="103" y="690" type="line"/>
      <point x="103" y="0" type="line"/>
      <point x="128" y="0" type="line"/>
    </contour>
  </outline>
</glyph>
<glyph name="V" format="2">
  <advance width="592"/>
  <unicode hex="0056"/>
  <outline>
    <contour>
      <point x="566" y="690" type="line"/>
      <point x="539" y="690" type="line"/>
      <point x="335" y="97" type="line" smooth="yes"/>
      <point x="326" y="72"/>
      <point x="318" y="47"/>
      <point x="310" y="22" type="curve"/>
      <point x="282" y="22" type="line"/>
      <point x="274" y="47"/>
      <point x="266" y="71"/>
      <point x="257" y="96" type="curve" smooth="yes"/>
      <point x="53" y="690" type="line"/>
      <point x="26" y="690" type="line"/>
      <point x="262" y="9" type="line" smooth="yes"/>
      <point x="264" y="4"/>
      <point x="269" y="0"/>
      <point x="275" y="0" type="curve" smooth="yes"/>
      <point x="317" y="0" type="line" smooth="yes"/>
      <point x="323" y="0"/>
      <point x="328" y="4"/>
      <point x="330" y="9" type="curve" smooth="yes"/>
    </contour>
  </outline>
</glyph>
<glyph name="b" format="2">
  <advance width="558"/>
  <unicode hex="0062"/>
  <outline>
    <contour>
      <point x="314" y="492" type="curve" smooth="yes"/>
      <point x="248" y="492"/>
      <point x="184" y="453"/>
      <point x="113" y="390" type="curve"/>
      <point x="113" y="367" type="line"/>
      <point x="195" y="434"/>
      <point x="250" y="469"/>
      <point x="314" y="469" type="curve" smooth="yes"/>
      <point x="421" y="469"/>
      <point x="463" y="408"/>
      <point x="463" y="240" type="curve" smooth="yes"/>
      <point x="463" y="72"/>
      <point x="415" y="11"/>
      <point x="294" y="11" type="curve" smooth="yes"/>
      <point x="236" y="11"/>
      <point x="183" y="17"/>
      <point x="113" y="37" type="curve"/>
      <point x="92" y="19" type="line"/>
      <point x="163" y="0"/>
      <point x="227" y="-12"/>
      <point x="294" y="-12" type="curve" smooth="yes"/>
      <point x="434" y="-12"/>
      <point x="488" y="58"/>
      <point x="488" y="240" type="curve" smooth="yes"/>
      <point x="488" y="422"/>
      <point x="440" y="492"/>
    </contour>
    <contour>
      <point x="116" y="700" type="line"/>
      <point x="92" y="700" type="line"/>
      <point x="92" y="19" type="line"/>
      <point x="116" y="19" type="line"/>
      <point x="116" y="374" type="line"/>
      <point x="113" y="390" type="line"/>
      <point x="117" y="421"/>
      <point x="116" y="444"/>
      <point x="116" y="483" type="curve" smooth="yes"/>
    </contour>
  </outline>
</glyph>
<glyph name="h" format="2">
  <advance width="569"/>
  <unicode hex="0068"/>
  <anchor x="288" y="0" name="bottom"/>
  <anchor x="284" y="240" name="center"/>
  <anchor x="105" y="705" name="top"/>
  <outline>
    <contour>
      <point x="349" y="492" type="curve" smooth="yes"/>
      <point x="274" y="492"/>
      <point x="198" y="454"/>
      <point x="115" y="392" type="curve"/>
      <point x="115" y="369" type="line"/>
      <point x="209" y="435"/>
      <point x="271" y="469"/>
      <point x="344" y="469" type="curve" smooth="yes"/>
      <point x="418" y="469"/>
      <point x="454" y="434"/>
      <point x="454" y="358" type="curve" smooth="yes"/>
      <point x="454" y="0" type="line"/>
      <point x="478" y="0" type="line"/>
      <point x="478" y="361" type="line" smooth="yes"/>
      <point x="478" y="447"/>
      <point x="434" y="492"/>
    </contour>
    <contour>
      <point x="118" y="700" type="line"/>
      <point x="94" y="700" type="line"/>
      <point x="94" y="0" type="line"/>
      <point x="118" y="0" type="line"/>
      <point x="118" y="376" type="line"/>
      <point x="115" y="392" type="line"/>
      <point x="119" y="419"/>
      <point x="120" y="450"/>
      <point x="120" y="485" type="curve" smooth="yes"/>
    </contour>
  </outline>
</glyph>
<glyph name="t" format="2">
  <advance width="347"/>
  <unicode hex="0074"/>
  <anchor x="230" y="-6" name="bottom"/>
  <anchor x="134" y="641" name="top"/>
  <outline>
    <contour>
      <point x="145" y="631" type="line"/>
      <point x="121" y="631" type="line"/>
      <point x="121" y="95" type="line" smooth="yes"/>
      <point x="121" y="30"/>
      <point x="157" y="-6"/>
      <point x="231" y="-6" type="curve" smooth="yes"/>
      <point x="248" y="-6"/>
      <point x="289" y="-4"/>
      <point x="316" y="0" type="curve"/>
      <point x="313" y="16" type="line"/>
      <point x="225" y="16" type="line" smooth="yes"/>
      <point x="174" y="16"/>
      <point x="145" y="43"/>
      <point x="145" y="96" type="curve" smooth="yes"/>
    </contour>
    <contour>
      <point x="323" y="480" type="line"/>
      <point x="127" y="480" type="line"/>
      <point x="34" y="475" type="line"/>
      <point x="34" y="458" type="line"/>
      <point x="323" y="458" type="line"/>
    </contour>
  </outline>
</glyph>
<glyph name="section" format="2">
  <advance width="543"/>
  <unicode hex="00A7"/>
  <outline>
    <contour>
      <point x="108" y="416" type="curve"/>
      <point x="86" y="416" type="line"/>
      <point x="75" y="311"/>
      <point x="89" y="246"/>
      <point x="174" y="198" type="curve" smooth="yes"/>
      <point x="365" y="90" type="line" smooth="yes"/>
      <point x="410" y="65"/>
      <point x="444" y="29"/>
      <point x="444" y="-32" type="curve" smooth="yes"/>
      <point x="444" y="-123"/>
      <point x="378" y="-123"/>
      <point x="292" y="-122" type="curve" smooth="yes"/>
      <point x="223" y="-121"/>
      <point x="157" y="-118"/>
      <point x="79" y="-114" type="curve"/>
      <point x="76" y="-132" type="line"/>
      <point x="154" y="-139"/>
      <point x="221" y="-143"/>
      <point x="292" y="-144" type="curve" smooth="yes"/>
      <point x="390" y="-145"/>
      <point x="469" y="-142"/>
      <point x="469" y="-32" type="curve" smooth="yes"/>
      <point x="469" y="32"/>
      <point x="442" y="74"/>
      <point x="366" y="117" type="curve" smooth="yes"/>
      <point x="173" y="226" type="line" smooth="yes"/>
      <point x="110" y="262"/>
      <point x="97" y="323"/>
    </contour>
    <contour>
      <point x="251" y="702" type="curve" smooth="yes"/>
      <point x="142" y="703"/>
      <point x="74" y="689"/>
      <point x="74" y="593" type="curve" smooth="yes"/>
      <point x="74" y="530"/>
      <point x="99" y="490"/>
      <point x="178" y="445" type="curve" smooth="yes"/>
      <point x="370" y="335" type="line" smooth="yes"/>
      <point x="430" y="301"/>
      <point x="446" y="235"/>
      <point x="435" y="142" type="curve"/>
      <point x="457" y="142" type="line"/>
      <point x="468" y="247"/>
      <point x="456" y="314"/>
      <point x="370" y="363" type="curve" smooth="yes"/>
      <point x="178" y="472" type="line" smooth="yes"/>
      <point x="131" y="499"/>
      <point x="99" y="533"/>
      <point x="99" y="593" type="curve" smooth="yes"/>
      <point x="99" y="678"/>
      <point x="163" y="681"/>
      <point x="251" y="680" type="curve" smooth="yes"/>
      <point x="358" y="679"/>
      <point x="398" y="676"/>
      <point x="464" y="672" type="curve"/>
      <point x="467" y="690" type="line"/>
      <point x="404" y="697"/>
      <point x="326" y="701"/>
    </contour>
  </outline>
</glyph>
<glyph name="twosuperior" format="2">
  <advance width="364"/>
  <unicode hex="00B2"/>
  <outline>
    <contour>
      <point x="191" y="753" type="curve" smooth="yes"/>
      <point x="159" y="753"/>
      <point x="117" y="749"/>
      <point x="65" y="734" type="curve"/>
      <point x="69" y="716" type="line"/>
      <point x="117" y="728"/>
      <point x="157" y="733"/>
      <point x="194" y="733" type="curve" smooth="yes"/>
      <point x="247" y="733"/>
      <point x="279" y="718"/>
      <point x="281" y="664" type="curve" smooth="yes"/>
      <point x="283" y="614"/>
      <point x="262" y="588"/>
      <point x="207" y="528" type="curve" smooth="yes"/>
      <point x="61" y="370" type="line" smooth="yes"/>
      <point x="59" y="368"/>
      <point x="57" y="366"/>
      <point x="57" y="362" type="curve" smooth="yes"/>
      <point x="57" y="355" type="line"/>
      <point x="327" y="355" type="line"/>
      <point x="327" y="373" type="line"/>
      <point x="157" y="373" type="line"/>
      <point x="134" y="373"/>
      <point x="116" y="373"/>
      <point x="93" y="373" type="curve"/>
      <point x="218" y="508" type="line" smooth="yes"/>
      <point x="274" y="569"/>
      <point x="307" y="609"/>
      <point x="307" y="666" type="curve" smooth="yes"/>
      <point x="307" y="730"/>
      <point x="261" y="753"/>
    </contour>
  </outline>
</glyph>
<glyph name="onequarter" format="2">
  <advance width="840"/>
  <unicode hex="00BC"/>
  <outline>
    <contour>
      <point x="630" y="690" type="line"/>
      <point x="606" y="690" type="line"/>
      <point x="126" y="0" type="line"/>
      <point x="150" y="0" type="line"/>
    </contour>
    <contour>
      <point x="201" y="690" type="line"/>
      <point x="180" y="690" type="line"/>
      <point x="54" y="646" type="line"/>
      <point x="58" y="632" type="line"/>
      <point x="182" y="669" type="line"/>
      <point x="180" y="659"/>
      <point x="180" y="649"/>
      <point x="180" y="639" type="curve" smooth="yes"/>
      <point x="180" y="276" type="line"/>
      <point x="201" y="276" type="line"/>
    </contour>
    <contour>
      <point x="633" y="414" type="line"/>
      <point x="610" y="414" type="line"/>
      <point x="462" y="163" type="line" smooth="yes"/>
      <point x="449" y="140"/>
      <point x="466" y="115"/>
      <point x="494" y="115" type="curve" smooth="yes"/>
      <point x="724" y="115" type="line"/>
      <point x="788" y="118" type="line"/>
      <point x="788" y="133" type="line"/>
      <point x="504" y="133" type="line" smooth="yes"/>
      <point x="486" y="133"/>
      <point x="476" y="148"/>
      <point x="484" y="162" type="curve" smooth="yes"/>
    </contour>
    <contour>
      <point x="743" y="336" type="line"/>
      <point x="727" y="336" type="line"/>
      <point x="722" y="266" type="line"/>
      <point x="722" y="0" type="line"/>
      <point x="743" y="0" type="line"/>
    </contour>
  </outline>
</glyph>
<glyph name="Eth" format="2">
  <advance width="662"/>
  <unicode hex="00D0"/>
  <outline>
    <contour>
      <point x="314" y="381" type="line"/>
      <point x="26" y="381" type="line"/>
      <point x="26" y="361" type="line"/>
      <point x="314" y="361" type="line"/>
    </contour>
    <component base="D" xOffset="3"/>
  </outline>
</glyph>
<glyph name="multiply" format="2">
  <advance width="488"/>
  <unicode hex="00D7"/>
  <outline>
    <contour>
      <point x="415" y="453" type="line"/>
      <point x="429" y="437" type="line"/>
      <point x="79" y="122" type="line"/>
      <point x="65" y="139" type="line"/>
    </contour>
    <contour>
      <point x="79" y="453" type="line"/>
      <point x="429" y="139" type="line"/>
      <point x="415" y="122" type="line"/>
      <point x="65" y="436" type="line"/>
    </contour>
  </outline>
</glyph>
<glyph name="ringhalfright" format="2">
  <advance width="186"/>
  <unicode hex="02BE"/>
  <anchor x="89" y="564" name="_top"/>
  <outline>
    <contour>
      <point x="115" y="638" type="curve" smooth="yes"/>
      <point x="115" y="594"/>
      <point x="83" y="562"/>
      <point x="40" y="562" type="curve"/>
      <point x="40" y="543" type="line"/>
      <point x="93" y="543"/>
      <point x="136" y="585"/>
      <point x="136" y="638" type="curve" smooth="yes"/>
      <point x="136" y="690"/>
      <point x="93" y="733"/>
      <point x="40" y="733" type="curve"/>
      <point x="40" y="714" type="line"/>
      <point x="83" y="714"/>
      <point x="115" y="681"/>
    </contour>
  </outline>
</glyph>
<glyph name="verticallinemod" format="2">
  <advance width="194"/>
  <unicode hex="02C8"/>
  <anchor x="97" y="556" name="_top"/>
  <outline>
    <contour>
      <point x="86" y="685" type="line"/>
      <point x="86" y="588" type="line"/>
      <point x="108" y="588" type="line"/>
      <point x="108" y="685" type="line"/>
    </contour>
  </outline>
</glyph>
<glyph name="verticallinelowmod" format="2">
  <advance width="194"/>
  <unicode hex="02CC"/>
  <anchor x="97" y="0" name="_bottom"/>
  <outline>
    <contour>
      <point x="86" y="-64" type="line"/>
      <point x="86" y="-161" type="line"/>
      <point x="108" y="-161" type="line"/>
      <point x="108" y="-64" type="line"/>
    </contour>
  </outline>
</glyph>
<glyph name="dotaccent" format="2">
  <advance width="206"/>
  <unicode hex="02D9"/>
  <anchor x="103" y="556" name="_top"/>
  <outline>
    <contour>
      <point x="108" y="676" type="curve" smooth="yes"/>
      <point x="98" y="676" type="line" smooth="yes"/>
      <point x="90" y="676"/>
      <point x="86" y="672"/>
      <point x="86" y="664" type="curve" smooth="yes"/>
      <point x="86" y="602" type="line" smooth="yes"/>
      <point x="86" y="594"/>
      <point x="90" y="590"/>
      <point x="98" y="590" type="curve" smooth="yes"/>
      <point x="108" y="590" type="line" smooth="yes"/>
      <point x="116" y="590"/>
      <point x="120" y="594"/>
      <point x="120" y="602" type="curve" smooth="yes"/>
      <point x="120" y="664" type="line" smooth="yes"/>
      <point x="120" y="672"/>
      <point x="116" y="676"/>
    </contour>
  </outline>
</glyph>
<glyph name="ring" format="2">
  <advance width="292"/>
  <unicode hex="02DA"/>
  <anchor x="146" y="564" name="_top"/>
  <outline>
    <contour>
      <point x="146" y="733" type="curve" smooth="yes"/>
      <point x="93" y="733"/>
      <point x="50" y="690"/>
      <point x="50" y="638" type="curve" smooth="yes"/>
      <point x="50" y="585"/>
      <point x="93" y="543"/>
      <point x="146" y="543" type="curve" smooth="yes"/>
      <point x="200" y="543"/>
      <point x="242" y="589"/>
      <point x="242" y="638" type="curve" smooth="yes"/>
      <point x="242" y="690"/>
      <point x="199" y="733"/>
    </contour>
    <contour>
      <point x="146" y="714" type="curve" smooth="yes"/>
      <point x="188" y="714"/>
      <point x="221" y="681"/>
      <point x="221" y="638" type="curve" smooth="yes"/>
      <point x="221" y="594"/>
      <point x="188" y="562"/>
      <point x="146" y="562" type="curve" smooth="yes"/>
      <point x="103" y="562"/>
      <point x="71" y="594"/>
      <point x="71" y="638" type="curve" smooth="yes"/>
      <point x="71" y="681"/>
      <point x="103" y="714"/>
    </contour>
  </outline>
</glyph>
<glyph name="circumflexcomb" format="2">
  <unicode hex="0302"/>
  <anchor x="-204" y="564" name="_top"/>
  <outline>
    <contour>
      <point x="-196" y="704" type="line"/>
      <point x="-214" y="704" type="line"/>
      <point x="-350" y="587" type="line"/>
      <point x="-338" y="575" type="line"/>
      <point x="-209" y="677" type="line"/>
      <point x="-201" y="677" type="line"/>
      <point x="-71" y="575" type="line"/>
      <point x="-60" y="587" type="line"/>
    </contour>
  </outline>
</glyph>
<glyph name="brevecomb" format="2">
  <unicode hex="0306"/>
  <anchor x="-213" y="554" name="_top"/>
  <outline>
    <contour>
      <point x="-96" y="687" type="line"/>
      <point x="-96" y="627"/>
      <point x="-142" y="593"/>
      <point x="-213" y="593" type="curve" smooth="yes"/>
      <point x="-286" y="593"/>
      <point x="-332" y="627"/>
      <point x="-332" y="687" type="curve"/>
      <point x="-350" y="683" type="line"/>
      <point x="-350" y="612"/>
      <point x="-297" y="569"/>
      <point x="-213" y="569" type="curve" smooth="yes"/>
      <point x="-130" y="569"/>
      <point x="-78" y="612"/>
      <point x="-78" y="683" type="curve"/>
    </contour>
  </outline>
</glyph>
<glyph name="dieresiscomb" format="2">
  <unicode hex="0308"/>
  <anchor x="-226" y="557" name="_top"/>
  <outline>
    <contour>
      <point x="-133" y="673" type="curve" smooth="yes"/>
      <point x="-143" y="673" type="line" smooth="yes"/>
      <point x="-150" y="673"/>
      <point x="-153" y="669"/>
      <point x="-153" y="662" type="curve" smooth="yes"/>
      <point x="-153" y="606" type="line" smooth="yes"/>
      <point x="-153" y="599"/>
      <point x="-150" y="595"/>
      <point x="-143" y="595" type="curve" smooth="yes"/>
      <point x="-133" y="595" type="line" smooth="yes"/>
      <point x="-126" y="595"/>
      <point x="-123" y="599"/>
      <point x="-123" y="606" type="curve" smooth="yes"/>
      <point x="-123" y="662" type="line" smooth="yes"/>
      <point x="-123" y="669"/>
      <point x="-126" y="673"/>
    </contour>
    <contour>
      <point x="-310" y="673" type="curve" smooth="yes"/>
      <point x="-320" y="673" type="line" smooth="yes"/>
      <point x="-327" y="673"/>
      <point x="-330" y="669"/>
      <point x="-330" y="662" type="curve" smooth="yes"/>
      <point x="-330" y="606" type="line" smooth="yes"/>
      <point x="-330" y="599"/>
      <point x="-327" y="595"/>
      <point x="-320" y="595" type="curve" smooth="yes"/>
      <point x="-310" y="595" type="line" smooth="yes"/>
      <point x="-303" y="595"/>
      <point x="-300" y="599"/>
      <point x="-300" y="606" type="curve" smooth="yes"/>
      <point x="-300" y="662" type="line" smooth="yes"/>
      <point x="-300" y="669"/>
      <point x="-303" y="673"/>
    </contour>
  </outline>
</glyph>
<glyph name="breveinvertedcomb" format="2">
  <unicode hex="0311"/>
  <anchor x="-192" y="554" name="_top"/>
  <outline>
    <contour>
      <point x="-312" y="569" type="line"/>
      <point x="-312" y="629"/>
      <point x="-266" y="663"/>
      <point x="-195" y="663" type="curve" smooth="yes"/>
      <point x="-122" y="663"/>
      <point x="-76" y="629"/>
      <point x="-76" y="569" type="curve"/>
      <point x="-58" y="573" type="line"/>
      <point x="-58" y="644"/>
      <point x="-111" y="687"/>
      <point x="-195" y="687" type="curve" smooth="yes"/>
      <point x="-278" y="687"/>
      <point x="-330" y="644"/>
      <point x="-330" y="573" type="curve"/>
    </contour>
  </outline>
</glyph>
<glyph name="horncomb" format="2">
  <unicode hex="031B"/>
  <anchor x="-191" y="561" name="_top"/>
  <outline>
    <contour>
      <point x="-246" y="418" type="line"/>
      <point x="-183" y="421"/>
      <point x="-132" y="469"/>
      <point x="-128" y="540" type="curve"/>
      <point x="-152" y="545" type="line"/>
      <point x="-156" y="482"/>
      <point x="-192" y="438"/>
      <point x="-250" y="435" type="curve"/>
    </contour>
  </outline>
</glyph>
<glyph name="pi" format="2">
  <advance width="640"/>
  <unicode hex="03C0"/>
  <outline>
    <contour>
      <point x="166" y="480" type="line"/>
      <point x="142" y="480" type="line"/>
      <point x="142" y="0" type="line"/>
      <point x="166" y="0" type="line"/>
    </contour>
    <contour>
      <point x="609" y="480" type="line"/>
      <point x="31" y="480" type="line"/>
      <point x="31" y="459" type="line"/>
      <point x="609" y="459" type="line"/>
    </contour>
    <contour>
      <point x="498" y="480" type="line"/>
      <point x="474" y="480" type="line"/>
      <point x="474" y="0" type="line"/>
      <point x="498" y="0" type="line"/>
    </contour>
  </outline>
</glyph>
<glyph name="Dje-cy" format="2">
  <advance width="748"/>
  <unicode hex="0402"/>
  <outline>
    <contour>
      <point x="438" y="1" type="line"/>
      <point x="604" y="-3"/>
      <point x="690" y="60"/>
      <point x="690" y="233" type="curve" smooth="yes"/>
      <point x="690" y="394"/>
      <point x="616" y="432"/>
      <point x="518" y="432" type="curve" smooth="yes"/>
      <point x="434" y="432"/>
      <point x="365" y="404"/>
      <point x="282" y="342" type="curve"/>
      <point x="282" y="319" type="line"/>
      <point x="360" y="373"/>
      <point x="420" y="409"/>
      <point x="515" y="409" type="curve" smooth="yes"/>
      <point x="601" y="409"/>
      <point x="665" y="380"/>
      <point x="665" y="232" type="curve" smooth="yes"/>
      <point x="665" y="64"/>
      <point x="583" y="27"/>
      <point x="436" y="18" type="curve"/>
    </contour>
    <contour>
      <point x="269" y="0" type="line"/>
      <point x="294" y="0" type="line"/>
      <point x="294" y="690" type="line"/>
      <point x="269" y="690" type="line"/>
    </contour>
    <contour>
      <point x="27" y="668" type="line"/>
      <point x="537" y="668" type="line"/>
      <point x="537" y="690" type="line"/>
      <point x="27" y="690" type="line"/>
    </contour>
  </outline>
</glyph>
<glyph name="E-cy" format="2">
  <advance width="570"/>
  <unicode hex="0404"/>
  <outline>
    <contour>
      <point x="341" y="702" type="curve" smooth="yes"/>
      <point x="145" y="702"/>
      <point x="76" y="608"/>
      <point x="76" y="345" type="curve" smooth="yes"/>
      <point x="76" y="82"/>
      <point x="145" y="-12"/>
      <point x="341" y="-12" type="curve" smooth="yes"/>
      <point x="425" y="-12"/>
      <point x="472" y="-6"/>
      <point x="525" y="6" type="curve"/>
      <point x="519" y="24" type="line"/>
      <point x="467" y="15"/>
      <point x="421" y="11"/>
      <point x="341" y="11" type="curve" smooth="yes"/>
      <point x="164" y="11"/>
      <point x="102" y="97"/>
      <point x="102" y="345" type="curve" smooth="yes"/>
      <point x="102" y="593"/>
      <point x="164" y="679"/>
      <point x="341" y="679" type="curve" smooth="yes"/>
      <point x="416" y="679"/>
      <point x="455" y="676"/>
      <point x="511" y="667" type="curve"/>
      <point x="517" y="685" type="line"/>
      <point x="465" y="697"/>
      <point x="420" y="702"/>
    </contour>
    <contour>
      <point x="98" y="381" type="line"/>
      <point x="98" y="359" type="line"/>
      <point x="420" y="360" type="line"/>
      <point x="420" y="380" type="line"/>
    </contour>
  </outline>
</glyph>
<glyph name="Tshe-cy" format="2">
  <advance width="790"/>
  <unicode hex="040B"/>
  <outline>
    <contour>
      <point x="576" y="432" type="curve" smooth="yes"/>
      <point x="480" y="432"/>
      <point x="387" y="409"/>
      <point x="282" y="342" type="curve"/>
      <point x="282" y="319" type="line"/>
      <point x="395" y="386"/>
      <point x="467" y="409"/>
      <point x="571" y="409" type="curve" smooth="yes"/>
      <point x="656" y="409"/>
      <point x="695" y="370"/>
      <point x="695" y="284" type="curve" smooth="yes"/>
      <point x="695" y="0" type="line"/>
      <point x="720" y="0" type="line"/>
      <point x="720" y="287" type="line" smooth="yes"/>
      <point x="720" y="384"/>
      <point x="673" y="432"/>
    </contour>
    <contour>
      <point x="294" y="690" type="line"/>
      <point x="269" y="690" type="line"/>
      <point x="269" y="0" type="line"/>
      <point x="294" y="0" type="line"/>
    </contour>
    <contour>
      <point x="537" y="690" type="line"/>
      <point x="27" y="690" type="line"/>
      <point x="27" y="668" type="line"/>
      <point x="537" y="668" type="line"/>
    </contour>
  </outline>
</glyph>
<glyph name="Em-cy" format="2">
  <advance width="854"/>
  <unicode hex="041C"/>
  <outline>
    <contour>
      <point x="721" y="690" type="curve" smooth="yes"/>
      <point x="679" y="690" type="line" smooth="yes"/>
      <point x="673" y="690"/>
      <point x="668" y="687"/>
      <point x="666" y="681" type="curve"/>
      <point x="476" y="178" type="line" smooth="yes"/>
      <point x="464" y="146"/>
      <point x="452" y="114"/>
      <point x="440" y="82" type="curve"/>
      <point x="414" y="82" type="line"/>
      <point x="402" y="113"/>
      <point x="391" y="145"/>
      <point x="379" y="176" type="curve" smooth="yes"/>
      <point x="188" y="681" type="line"/>
      <point x="186" y="687"/>
      <point x="181" y="690"/>
      <point x="175" y="690" type="curve" smooth="yes"/>
      <point x="133" y="690" type="line" smooth="yes"/>
      <point x="124" y="690"/>
      <point x="118" y="684"/>
      <point x="118" y="675" type="curve" smooth="yes"/>
      <point x="88" y="0" type="line"/>
      <point x="113" y="0" type="line"/>
      <point x="143" y="668" type="line"/>
      <point x="167" y="668" type="line"/>
      <point x="393" y="69" type="line" smooth="yes"/>
      <point x="395" y="63"/>
      <point x="400" y="60"/>
      <point x="406" y="60" type="curve" smooth="yes"/>
      <point x="448" y="60" type="line" smooth="yes"/>
      <point x="454" y="60"/>
      <point x="459" y="63"/>
      <point x="461" y="69" type="curve" smooth="yes"/>
      <point x="687" y="668" type="line"/>
      <point x="711" y="668" type="line"/>
      <point x="741" y="0" type="line"/>
      <point x="766" y="0" type="line"/>
      <point x="736" y="675" type="line" smooth="yes"/>
      <point x="736" y="684"/>
      <point x="730" y="690"/>
    </contour>
  </outline>
</glyph>
<glyph name="Ha-cy" format="2">
  <advance width="599"/>
  <unicode hex="0425"/>
  <outline>
    <contour>
      <point x="545" y="690" type="line"/>
      <point x="515" y="690" type="line"/>
      <point x="309" y="360" type="line"/>
      <point x="528" y="0" type="line"/>
      <point x="558" y="0" type="line"/>
      <point x="339" y="360" type="line"/>
    </contour>
    <contour>
      <point x="84" y="690" type="line"/>
      <point x="54" y="690" type="line"/>
      <point x="260" y="360" type="line"/>
      <point x="41" y="0" type="line"/>
      <point x="71" y="0" type="line"/>
      <point x="290" y="360" type="line"/>
    </contour>
    <contour>
      <point x="330" y="372" type="line"/>
      <point x="278" y="372" type="line"/>
      <point x="278" y="350" type="line"/>
      <point x="330" y="350" type="line"/>
    </contour>
  </outline>
</glyph>
<glyph name="Che-cy" format="2">
  <advance width="605"/>
  <unicode hex="0427"/>
  <anchor x="585" y="0" name="bottomright"/>
  <anchor x="281" y="740" name="top"/>
  <outline>
    <contour>
      <point x="96" y="690" type="line"/>
      <point x="71" y="690" type="line"/>
      <point x="71" y="413" type="line" smooth="yes"/>
      <point x="71" y="316"/>
      <point x="116" y="268"/>
      <point x="209" y="268" type="curve" smooth="yes"/>
      <point x="300" y="268"/>
      <point x="388" y="291"/>
      <point x="488" y="358" type="curve"/>
      <point x="488" y="381" type="line"/>
      <point x="381" y="314"/>
      <point x="313" y="291"/>
      <point x="214" y="291" type="curve" smooth="yes"/>
      <point x="133" y="291"/>
      <point x="96" y="330"/>
      <point x="96" y="416" type="curve" smooth="yes"/>
    </contour>
    <contour>
      <point x="502" y="690" type="line"/>
      <point x="477" y="690" type="line"/>
      <point x="477" y="0" type="line"/>
      <point x="502" y="0" type="line"/>
    </contour>
  </outline>
</glyph>
<glyph name="Shcha-cy" format="2">
  <advance width="908"/>
  <unicode hex="0429"/>
  <outline>
    <contour>
      <point x="128" y="690" type="line"/>
      <point x="103" y="690" type="line"/>
      <point x="103" y="0" type="line"/>
      <point x="128" y="0" type="line"/>
    </contour>
    <contour>
      <point x="870" y="22" type="line"/>
      <point x="120" y="22" type="line"/>
      <point x="120" y="0" type="line"/>
      <point x="870" y="0" type="line"/>
    </contour>
    <contour>
      <point x="458" y="690" type="line"/>
      <point x="433" y="690" type="line"/>
      <point x="433" y="0" type="line"/>
      <point x="458" y="0" type="line"/>
    </contour>
    <contour>
      <point x="788" y="690" type="line"/>
      <point x="763" y="690" type="line"/>
      <point x="763" y="0" type="line"/>
      <point x="788" y="0" type="line"/>
    </contour>
    <contour>
      <point x="870" y="7" type="line"/>
      <point x="846" y="7" type="line"/>
      <point x="852" y="-151" type="line"/>
      <point x="870" y="-151" type="line"/>
    </contour>
  </outline>
</glyph>
<glyph name="Hardsign-cy" format="2">
  <advance width="744"/>
  <unicode hex="042A"/>
  <outline>
    <contour>
      <point x="479" y="384" type="curve" smooth="yes"/>
      <point x="273" y="384" type="line"/>
      <point x="273" y="361" type="line"/>
      <point x="479" y="361" type="line" smooth="yes"/>
      <point x="619" y="361"/>
      <point x="660" y="315"/>
      <point x="660" y="188" type="curve" smooth="yes"/>
      <point x="660" y="47"/>
      <point x="609" y="15"/>
      <point x="479" y="15" type="curve" smooth="yes"/>
      <point x="377" y="15"/>
      <point x="302" y="16"/>
      <point x="274" y="18" type="curve"/>
      <point x="260" y="0" type="line"/>
      <point x="331" y="-7"/>
      <point x="375" y="-8"/>
      <point x="479" y="-8" type="curve" smooth="yes"/>
      <point x="628" y="-8"/>
      <point x="686" y="33"/>
      <point x="686" y="188" type="curve" smooth="yes"/>
      <point x="686" y="329"/>
      <point x="638" y="384"/>
    </contour>
    <contour>
      <point x="285" y="690" type="line"/>
      <point x="260" y="690" type="line"/>
      <point x="260" y="0" type="line"/>
      <point x="285" y="0" type="line"/>
    </contour>
    <contour>
      <point x="273" y="690" type="line"/>
      <point x="27" y="690" type="line"/>
      <point x="27" y="668" type="line"/>
      <point x="273" y="668" type="line"/>
    </contour>
  </outline>
</glyph>
<glyph name="es-cy" format="2">
  <advance width="478"/>
  <unicode hex="0441"/>
  <outline>
    <contour>
      <point x="288" y="492" type="curve" smooth="yes"/>
      <point x="129" y="492"/>
      <point x="69" y="425"/>
      <point x="69" y="240" type="curve" smooth="yes"/>
      <point x="69" y="55"/>
      <point x="129" y="-12"/>
      <point x="289" y="-12" type="curve" smooth="yes"/>
      <point x="337" y="-12"/>
      <point x="390" y="-5"/>
      <point x="434" y="5" type="curve"/>
      <point x="430" y="23" type="line"/>
      <point x="386" y="14"/>
      <point x="320" y="11"/>
      <point x="292" y="11" type="curve" smooth="yes"/>
      <point x="147" y="11"/>
      <point x="94" y="63"/>
      <point x="94" y="240" type="curve" smooth="yes"/>
      <point x="94" y="417"/>
      <point x="147" y="469"/>
      <point x="292" y="469" type="curve" smooth="yes"/>
      <point x="324" y="469"/>
      <point x="382" y="466"/>
      <point x="417" y="457" type="curve"/>
      <point x="423" y="475" type="line"/>
      <point x="381" y="488"/>
      <point x="324" y="492"/>
    </contour>
  </outline>
</glyph>
<glyph name="u-cy" format="2">
  <advance width="506"/>
  <unicode hex="0443"/>
  <anchor x="251" y="558" name="top"/>
  <outline>
    <contour>
      <point x="477" y="480" type="line"/>
      <point x="451" y="480" type="line"/>
      <point x="282" y="76" type="line" smooth="yes"/>
      <point x="273" y="54"/>
      <point x="263" y="30"/>
      <point x="254" y="9" type="curve" smooth="yes"/>
      <point x="235" y="-38" type="line" smooth="yes"/>
      <point x="217" y="-84"/>
      <point x="194" y="-131"/>
      <point x="162" y="-160" type="curve" smooth="yes"/>
      <point x="126" y="-187"/>
      <point x="82" y="-194"/>
      <point x="44" y="-192" type="curve"/>
      <point x="42" y="-206" type="line"/>
      <point x="89" y="-214"/>
      <point x="135" y="-204"/>
      <point x="172" y="-178" type="curve" smooth="yes"/>
      <point x="211" y="-146"/>
      <point x="239" y="-89"/>
      <point x="256" y="-47" type="curve" smooth="yes"/>
    </contour>
    <contour>
      <point x="56" y="480" type="line"/>
      <point x="30" y="480" type="line"/>
      <point x="227" y="8" type="line" smooth="yes"/>
      <point x="230" y="3"/>
      <point x="234" y="0"/>
      <point x="240" y="0" type="curve" smooth="yes"/>
      <point x="256" y="0" type="line"/>
      <point x="266" y="22" type="line"/>
      <point x="247" y="22" type="line"/>
      <point x="240" y="39"/>
      <point x="232" y="57"/>
      <point x="225" y="74" type="curve" smooth="yes"/>
    </contour>
  </outline>
</glyph>
<glyph name="yeru-cy" format="2">
  <advance width="674"/>
  <unicode hex="044B"/>
  <anchor x="336" y="558" name="top"/>
  <outline>
    <contour>
      <point x="277" y="268" type="curve" smooth="yes"/>
      <point x="105" y="268" type="line"/>
      <point x="105" y="247" type="line"/>
      <point x="277" y="247" type="line" smooth="yes"/>
      <point x="375" y="247"/>
      <point x="404" y="217"/>
      <point x="404" y="132" type="curve" smooth="yes"/>
      <point x="404" y="38"/>
      <point x="369" y="16"/>
      <point x="277" y="16" type="curve" smooth="yes"/>
      <point x="192" y="16"/>
      <point x="129" y="17"/>
      <point x="106" y="18" type="curve"/>
      <point x="94" y="0" type="line"/>
      <point x="153" y="-5"/>
      <point x="191" y="-6"/>
      <point x="278" y="-6" type="curve" smooth="yes"/>
      <point x="388" y="-6"/>
      <point x="430" y="23"/>
      <point x="430" y="131" type="curve" smooth="yes"/>
      <point x="430" y="230"/>
      <point x="394" y="268"/>
    </contour>
    <contour>
      <point x="118" y="480" type="line"/>
      <point x="94" y="480" type="line"/>
      <point x="94" y="0" type="line"/>
      <point x="118" y="0" type="line"/>
    </contour>
    <contour>
      <point x="579" y="480" type="line"/>
      <point x="555" y="480" type="line"/>
      <point x="555" y="0" type="line"/>
      <point x="579" y="0" type="line"/>
    </contour>
  </outline>
</glyph>
<glyph name="softsign-cy" format="2">
  <advance width="504"/>
  <unicode hex="044C"/>
  <outline>
    <contour>
      <point x="277" y="268" type="curve" smooth="yes"/>
      <point x="105" y="268" type="line"/>
      <point x="105" y="247" type="line"/>
      <point x="277" y="247" type="line" smooth="yes"/>
      <point x="391" y="247"/>
      <point x="424" y="217"/>
      <point x="424" y="132" type="curve" smooth="yes"/>
      <point x="424" y="38"/>
      <point x="383" y="16"/>
      <point x="277" y="16" type="curve" smooth="yes"/>
      <point x="192" y="16"/>
      <point x="129" y="17"/>
      <point x="106" y="18" type="curve"/>
      <point x="94" y="0" type="line"/>
      <point x="153" y="-5"/>
      <point x="191" y="-6"/>
      <point x="278" y="-6" type="curve" smooth="yes"/>
      <point x="402" y="-6"/>
      <point x="450" y="23"/>
      <point x="450" y="131" type="curve" smooth="yes"/>
      <point x="450" y="230"/>
      <point x="410" y="268"/>
    </contour>
    <contour>
      <point x="118" y="480" type="line"/>
      <point x="94" y="480" type="line"/>
      <point x="94" y="0" type="line"/>
      <point x="118" y="0" type="line"/>
    </contour>
  </outline>
</glyph>
<glyph name="nje-cy" format="2">
  <advance width="784"/>
  <unicode hex="045A"/>
  <outline>
    <contour>
      <point x="569" y="277" type="curve" smooth="yes"/>
      <point x="416" y="277" type="line"/>
      <point x="416" y="257" type="line"/>
      <point x="569" y="257" type="line" smooth="yes"/>
      <point x="674" y="257"/>
      <point x="704" y="225"/>
      <point x="704" y="137" type="curve" smooth="yes"/>
      <point x="704" y="38"/>
      <point x="666" y="15"/>
      <point x="569" y="15" type="curve" smooth="yes"/>
      <point x="493" y="15"/>
      <point x="438" y="16"/>
      <point x="417" y="17" type="curve"/>
      <point x="406" y="0" type="line"/>
      <point x="459" y="-5"/>
      <point x="492" y="-6"/>
      <point x="570" y="-6" type="curve" smooth="yes"/>
      <point x="684" y="-6"/>
      <point x="729" y="24"/>
      <point x="729" y="137" type="curve" smooth="yes"/>
      <point x="729" y="237"/>
      <point x="692" y="277"/>
    </contour>
    <contour>
      <point x="119" y="480" type="line"/>
      <point x="95" y="480" type="line"/>
      <point x="95" y="0" type="line"/>
      <point x="119" y="0" type="line"/>
    </contour>
    <contour>
      <point x="415" y="276" type="line"/>
      <point x="113" y="276" type="line"/>
      <point x="113" y="256" type="line"/>
      <point x="415" y="256" type="line"/>
    </contour>
    <contour>
      <point x="430" y="480" type="line"/>
      <point x="406" y="480" type="line"/>
      <point x="406" y="0" type="line"/>
      <point x="430" y="0" type="line"/>
    </contour>
  </outline>
</glyph>
<glyph name="dzhe-cy" format="2">
  <advance width="565"/>
  <unicode hex="045F"/>
  <outline>
    <contour>
      <point x="120" y="480" type="line"/>
      <point x="95" y="480" type="line"/>
      <point x="95" y="0" type="line"/>
      <point x="120" y="0" type="line"/>
    </contour>
    <contour>
      <point x="455" y="21" type="line"/>
      <point x="113" y="21" type="line"/>
      <point x="113" y="0" type="line"/>
      <point x="455" y="0" type="line"/>
    </contour>
    <contour>
      <point x="470" y="480" type="line"/>
      <point x="445" y="480" type="line"/>
      <point x="445" y="0" type="line"/>
      <point x="470" y="0" type="line"/>
    </contour>
    <contour>
      <point x="296" y="5" type="line"/>
      <point x="269" y="5" type="line"/>
      <point x="275" y="-168" type="line"/>
      <point x="292" y="-168" type="line"/>
    </contour>
  </outline>
</glyph>
<glyph name="Yusbig-cy" format="2">
  <advance width="837"/>
  <unicode hex="046A"/>
  <outline>
    <contour>
      <point x="28" y="0" type="curve"/>
      <point x="55" y="0" type="line"/>
      <point x="180" y="308"/>
      <point x="216" y="347"/>
      <point x="409" y="347" type="curve"/>
      <point x="408" y="318"/>
      <point x="407" y="289"/>
      <point x="407" y="263" type="curve" smooth="yes"/>
      <point x="407" y="0" type="line"/>
      <point x="431" y="0" type="line"/>
      <point x="431" y="263" type="line" smooth="yes"/>
      <point x="431" y="289"/>
      <point x="430" y="318"/>
      <point x="429" y="347" type="curve"/>
      <point x="622" y="347"/>
      <point x="658" y="308"/>
      <point x="783" y="0" type="curve"/>
      <point x="810" y="0" type="line"/>
      <point x="692" y="281"/>
      <point x="661" y="367"/>
      <point x="439" y="367" type="curve"/>
      <point x="439" y="369" type="line"/>
      <point x="758" y="675" type="line" smooth="yes"/>
      <point x="766" y="682"/>
      <point x="762" y="690"/>
      <point x="752" y="690" type="curve" smooth="yes"/>
      <point x="79" y="690" type="line" smooth="yes"/>
      <point x="68" y="690"/>
      <point x="65" y="683"/>
      <point x="73" y="675" type="curve" smooth="yes"/>
      <point x="399" y="369" type="line"/>
      <point x="399" y="367" type="line"/>
      <point x="177" y="367"/>
      <point x="146" y="281"/>
    </contour>
    <contour>
      <point x="419" y="380" type="line"/>
      <point x="112" y="668" type="line"/>
      <point x="717" y="668" type="line"/>
    </contour>
  </outline>
</glyph>
<glyph name="yusbig-cy" format="2">
  <advance width="670"/>
  <unicode hex="046B"/>
  <outline>
    <contour>
      <point x="29" y="0" type="curve"/>
      <point x="56" y="0" type="line"/>
      <point x="152" y="214"/>
      <point x="178" y="240"/>
      <point x="325" y="240" type="curve"/>
      <point x="324" y="220"/>
      <point x="323" y="200"/>
      <point x="323" y="182" type="curve" smooth="yes"/>
      <point x="323" y="0" type="line"/>
      <point x="347" y="0" type="line"/>
      <point x="347" y="182" type="line" smooth="yes"/>
      <point x="347" y="200"/>
      <point x="346" y="220"/>
      <point x="346" y="240" type="curve"/>
      <point x="492" y="240"/>
      <point x="519" y="214"/>
      <point x="615" y="0" type="curve"/>
      <point x="642" y="0" type="line"/>
      <point x="551" y="197"/>
      <point x="527" y="260"/>
      <point x="355" y="260" type="curve"/>
      <point x="355" y="262" type="line"/>
      <point x="594" y="467" type="line" smooth="yes"/>
      <point x="600" y="472"/>
      <point x="596" y="480"/>
      <point x="589" y="480" type="curve" smooth="yes"/>
      <point x="76" y="480" type="line" smooth="yes"/>
      <point x="69" y="480"/>
      <point x="65" y="471"/>
      <point x="71" y="466" type="curve" smooth="yes"/>
      <point x="316" y="262" type="line"/>
      <point x="316" y="260" type="line"/>
      <point x="144" y="260"/>
      <point x="120" y="197"/>
    </contour>
    <contour>
      <point x="335" y="274" type="line"/>
      <point x="112" y="459" type="line"/>
      <point x="553" y="459" type="line"/>
    </contour>
  </outline>
</glyph>
<glyph name="Iishorttail-cy" format="2">
  <advance width="678"/>
  <unicode hex="048A"/>
  <outline>
    <contour>
      <point x="551" y="22" type="line"/>
      <point x="551" y="0" type="line"/>
      <point x="625" y="0" type="line"/>
      <point x="595" y="-151" type="line"/>
      <point x="614" y="-151" type="line"/>
      <point x="650" y="3" type="line"/>
      <point x="650" y="22" type="line"/>
    </contour>
    <component base="Ii-cy"/>
    <component base="brevecomb-cy" xOffset="162" yOffset="260"/>
  </outline>
</glyph>
<glyph name="iishorttail-cy" format="2">
  <advance width="584"/>
  <unicode hex="048B"/>
  <outline>
    <contour>
      <point x="554" y="3" type="line"/>
      <point x="554" y="22" type="line"/>
      <point x="465" y="22" type="line"/>
      <point x="465" y="0" type="line"/>
      <point x="529" y="0" type="line"/>
      <point x="499" y="-144" type="line"/>
      <point x="518" y="-144" type="line"/>
    </contour>
    <component base="iishort-cy"/>
  </outline>
</glyph>
<glyph name="Ertick-cy" format="2">
  <advance width="625"/>
  <unicode hex="048E"/>
  <outline>
    <contour>
      <point x="333" y="698" type="curve" smooth="yes"/>
      <point x="230" y="698"/>
      <point x="182" y="697"/>
      <point x="112" y="690" type="curve"/>
      <point x="126" y="672" type="line"/>
      <point x="153" y="674"/>
      <point x="232" y="675"/>
      <point x="333" y="675" type="curve" smooth="yes"/>
      <point x="460" y="675"/>
      <point x="506" y="638"/>
      <point x="506" y="495" type="curve" smooth="yes"/>
      <point x="506" y="352"/>
      <point x="460" y="317"/>
      <point x="333" y="315" type="curve" smooth="yes"/>
      <point x="264" y="315"/>
      <point x="190" y="315"/>
      <point x="125" y="315" type="curve"/>
      <point x="122" y="297" type="line"/>
      <point x="144" y="295"/>
      <point x="227" y="292"/>
      <point x="333" y="292" type="curve" smooth="yes"/>
      <point x="479" y="292"/>
      <point x="532" y="335"/>
      <point x="532" y="495" type="curve" smooth="yes"/>
      <point x="532" y="653"/>
      <point x="479" y="698"/>
    </contour>
    <contour>
      <point x="137" y="690" type="line"/>
      <point x="112" y="690" type="line"/>
      <point x="112" y="0" type="line"/>
      <point x="137" y="0" type="line"/>
    </contour>
    <contour>
      <point x="369" y="431" type="line"/>
      <point x="558" y="242" type="line"/>
      <point x="573" y="258" type="line"/>
      <point x="384" y="447" type="line"/>
    </contour>
  </outline>
</glyph>
<glyph name="Gheupturn-cy" format="2">
  <advance width="513"/>
  <unicode hex="0490"/>
  <outline>
    <contour>
      <point x="202" y="690" type="curve" smooth="yes"/>
      <point x="143" y="690"/>
      <point x="100" y="647"/>
      <point x="100" y="588" type="curve" smooth="yes"/>
      <point x="100" y="0" type="line"/>
      <point x="125" y="0" type="line"/>
      <point x="125" y="586" type="line" smooth="yes"/>
      <point x="125" y="634"/>
      <point x="159" y="668"/>
      <point x="207" y="668" type="curve" smooth="yes"/>
      <point x="485" y="668" type="line"/>
      <point x="486" y="686" type="line"/>
      <point x="390" y="690"/>
      <point x="298" y="690"/>
    </contour>
    <contour>
      <point x="486" y="841" type="line"/>
      <point x="469" y="841" type="line"/>
      <point x="463" y="668" type="line"/>
      <point x="486" y="686" type="line"/>
    </contour>
  </outline>
</glyph>
<glyph name="ghemiddlehook-cy" format="2">
  <advance width="516"/>
  <unicode hex="0495"/>
  <outline>
    <contour>
      <point x="184" y="480" type="curve" smooth="yes"/>
      <point x="126" y="480"/>
      <point x="92" y="445"/>
      <point x="92" y="386" type="curve" smooth="yes"/>
      <point x="92" y="0" type="line"/>
      <point x="116" y="0" type="line"/>
      <point x="116" y="383" type="line" smooth="yes"/>
      <point x="116" y="434"/>
      <point x="139" y="458"/>
      <point x="189" y="458" type="curve" smooth="yes"/>
      <point x="388" y="458" type="line"/>
      <point x="388" y="477" type="line"/>
      <point x="318" y="480"/>
      <point x="253" y="480"/>
    </contour>
    <contour>
      <point x="229" y="-211" type="line"/>
      <point x="392" y="-206"/>
      <point x="466" y="-131"/>
      <point x="466" y="64" type="curve" smooth="yes"/>
      <point x="466" y="245"/>
      <point x="392" y="287"/>
      <point x="294" y="287" type="curve" smooth="yes"/>
      <point x="230" y="287"/>
      <point x="177" y="265"/>
      <point x="113" y="217" type="curve"/>
      <point x="113" y="194" type="line"/>
      <point x="173" y="236"/>
      <point x="218" y="264"/>
      <point x="291" y="264" type="curve" smooth="yes"/>
      <point x="377" y="264"/>
      <point x="441" y="231"/>
      <point x="441" y="63" type="curve" smooth="yes"/>
      <point x="441" y="-129"/>
      <point x="364" y="-181"/>
      <point x="227" y="-192" type="curve"/>
    </contour>
  </outline>
</glyph>
<glyph name="zhedescender-cy" format="2">
  <advance width="771"/>
  <unicode hex="0497"/>
  <outline>
    <contour>
      <point x="757" y="21" type="line"/>
      <point x="696" y="21" type="line"/>
      <point x="696" y="0" type="line"/>
      <point x="757" y="0" type="line"/>
    </contour>
    <contour>
      <point x="757" y="5" type="line"/>
      <point x="734" y="5" type="line"/>
      <point x="740" y="-143" type="line"/>
      <point x="757" y="-143" type="line"/>
    </contour>
    <component base="zhe-cy"/>
  </outline>
</glyph>
<glyph name="Kadescender-cy" format="2">
  <advance width="625"/>
  <unicode hex="049A"/>
  <outline>
    <contour>
      <point x="610" y="7" type="line"/>
      <point x="586" y="7" type="line"/>
      <point x="592" y="-151" type="line"/>
      <point x="610" y="-151" type="line"/>
    </contour>
    <contour>
      <point x="610" y="22" type="line"/>
      <point x="505" y="22" type="line"/>
      <point x="505" y="0" type="line"/>
      <point x="610" y="0" type="line"/>
    </contour>
    <component base="Ka-cy"/>
  </outline>
</glyph>
<glyph name="Kabashkir-cy" format="2">
  <advance width="723"/>
  <unicode hex="04A0"/>
  <outline>
    <contour>
      <point x="275" y="690" type="line"/>
      <point x="15" y="690" type="line"/>
      <point x="15" y="668" type="line"/>
      <point x="275" y="668" type="line"/>
    </contour>
    <component base="Ka-cy" xOffset="155"/>
  </outline>
</glyph>
<glyph name="Endescender-cy" format="2">
  <advance width="677"/>
  <unicode hex="04A2"/>
  <outline>
    <contour>
      <point x="638" y="22" type="line"/>
      <point x="536" y="22" type="line"/>
      <point x="536" y="0" type="line"/>
      <point x="638" y="0" type="line"/>
    </contour>
    <contour>
      <point x="638" y="7" type="line"/>
      <point x="614" y="7" type="line"/>
      <point x="620" y="-151" type="line"/>
      <point x="638" y="-151" type="line"/>
    </contour>
    <component base="En-cy" xOffset="7"/>
  </outline>
</glyph>
<glyph name="enghe-cy" format="2">
  <advance width="760"/>
  <unicode hex="04A5"/>
  <outline>
    <contour>
      <point x="118" y="480" type="line"/>
      <point x="94" y="480" type="line"/>
      <point x="94" y="0" type="line"/>
      <point x="118" y="0" type="line"/>
    </contour>
    <contour>
      <point x="437" y="267" type="line"/>
      <point x="112" y="267" type="line"/>
      <point x="112" y="246" type="line"/>
      <point x="437" y="246" type="line"/>
    </contour>
    <contour>
      <point x="520" y="480" type="curve" smooth="yes"/>
      <point x="462" y="480"/>
      <point x="428" y="445"/>
      <point x="428" y="386" type="curve" smooth="yes"/>
      <point x="428" y="0" type="line"/>
      <point x="452" y="0" type="line"/>
      <point x="452" y="383" type="line" smooth="yes"/>
      <point x="452" y="434"/>
      <point x="475" y="458"/>
      <point x="525" y="458" type="curve" smooth="yes"/>
      <point x="730" y="458" type="line"/>
      <point x="730" y="477" type="line"/>
      <point x="658" y="480"/>
      <point x="591" y="480"/>
    </contour>
  </outline>
</glyph>
<glyph name="esdescender-cy" format="2">
  <advance width="478"/>
  <unicode hex="04AB"/>
  <outline>
    <contour>
      <point x="287" y="5" type="line"/>
      <point x="260" y="5" type="line"/>
      <point x="266" y="-168" type="line"/>
      <point x="283" y="-168" type="line"/>
    </contour>
    <component base="c"/>
  </outline>
</glyph>
<glyph name="Tedescender-cy" format="2">
  <advance width="564"/>
  <unicode hex="04AC"/>
  <outline>
    <contour>
      <point x="353" y="-151" type="line"/>
      <point x="371" y="-151" type="line"/>
      <point x="371" y="7" type="line"/>
      <point x="347" y="7" type="line"/>
    </contour>
    <contour>
      <point x="269" y="0" type="line"/>
      <point x="371" y="0" type="line"/>
      <point x="371" y="22" type="line"/>
      <point x="269" y="22" type="line"/>
    </contour>
    <component base="Te-cy"/>
  </outline>
</glyph>
<glyph name="Hadescender-cy" format="2">
  <advance width="621"/>
  <unicode hex="04B2"/>
  <outline>
    <contour>
      <point x="542" y="690" type="line"/>
      <point x="512" y="690" type="line"/>
      <point x="306" y="360" type="line"/>
      <point x="525" y="0" type="line"/>
      <point x="555" y="0" type="line"/>
      <point x="336" y="360" type="line"/>
    </contour>
    <contour>
      <point x="81" y="690" type="line"/>
      <point x="51" y="690" type="line"/>
      <point x="257" y="360" type="line"/>
      <point x="38" y="0" type="line"/>
      <point x="68" y="0" type="line"/>
      <point x="287" y="360" type="line"/>
    </contour>
    <contour>
      <point x="327" y="372" type="line"/>
      <point x="275" y="372" type="line"/>
      <point x="275" y="350" type="line"/>
      <point x="327" y="350" type="line"/>
    </contour>
    <contour>
      <point x="603" y="22" type="line"/>
      <point x="526" y="22" type="line"/>
      <point x="526" y="0" type="line"/>
      <point x="603" y="0" type="line"/>
    </contour>
    <contour>
      <point x="603" y="7" type="line"/>
      <point x="579" y="7" type="line"/>
      <point x="585" y="-151" type="line"/>
      <point x="603" y="-151" type="line"/>
    </contour>
  </outline>
</glyph>
<glyph name="Tetse-cy" format="2">
  <advance width="812"/>
  <unicode hex="04B4"/>
  <outline>
    <contour>
      <point x="670" y="0" type="line"/>
      <point x="695" y="0" type="line"/>
      <point x="695" y="690" type="line"/>
      <point x="670" y="690" type="line"/>
    </contour>
    <contour>
      <point x="264" y="0" type="line"/>
      <point x="777" y="0" type="line"/>
      <point x="777" y="22" type="line"/>
      <point x="264" y="22" type="line"/>
    </contour>
    <contour>
      <point x="247" y="0" type="line"/>
      <point x="272" y="0" type="line"/>
      <point x="272" y="690" type="line"/>
      <point x="247" y="690" type="line"/>
    </contour>
    <contour>
      <point x="759" y="-151" type="line"/>
      <point x="777" y="-151" type="line"/>
      <point x="777" y="7" type="line"/>
      <point x="753" y="7" type="line"/>
    </contour>
    <contour>
      <point x="27" y="668" type="line"/>
      <point x="527" y="668" type="line"/>
      <point x="527" y="690" type="line"/>
      <point x="27" y="690" type="line"/>
    </contour>
  </outline>
</glyph>
<glyph name="Cheverticalstroke-cy" format="2">
  <advance width="599"/>
  <unicode hex="04B8"/>
  <outline>
    <contour>
      <point x="203" y="268" type="curve" smooth="yes"/>
      <point x="294" y="268"/>
      <point x="382" y="291"/>
      <point x="482" y="358" type="curve"/>
      <point x="482" y="381" type="line"/>
      <point x="375" y="314"/>
      <point x="307" y="291"/>
      <point x="208" y="291" type="curve" smooth="yes"/>
      <point x="127" y="291"/>
      <point x="90" y="330"/>
      <point x="90" y="416" type="curve" smooth="yes"/>
      <point x="90" y="690" type="line"/>
      <point x="65" y="690" type="line"/>
      <point x="65" y="413" type="line" smooth="yes"/>
      <point x="65" y="316"/>
      <point x="110" y="268"/>
    </contour>
    <contour>
      <point x="272" y="120" type="line"/>
      <point x="292" y="120" type="line"/>
      <point x="292" y="501" type="line"/>
      <point x="272" y="501" type="line"/>
    </contour>
    <contour>
      <point x="471" y="0" type="line"/>
      <point x="496" y="0" type="line"/>
      <point x="496" y="690" type="line"/>
      <point x="471" y="690" type="line"/>
    </contour>
  </outline>
</glyph>
<glyph name="Cheabkhasian-cy" format="2">
  <advance width="712"/>
  <unicode hex="04BC"/>
  <outline>
    <contour>
      <point x="148" y="344" type="curve" smooth="yes"/>
      <point x="498" y="344" type="line" smooth="yes"/>
      <point x="631" y="344"/>
      <point x="657" y="418"/>
      <point x="657" y="503" type="curve" smooth="yes"/>
      <point x="657" y="635"/>
      <point x="580" y="702"/>
      <point x="420" y="702" type="curve" smooth="yes"/>
      <point x="231" y="702"/>
      <point x="159" y="609"/>
      <point x="159" y="343" type="curve" smooth="yes"/>
      <point x="159" y="85"/>
      <point x="227" y="-12"/>
      <point x="434" y="-12" type="curve" smooth="yes"/>
      <point x="501" y="-12"/>
      <point x="602" y="-2"/>
      <point x="645" y="14" type="curve"/>
      <point x="639" y="31" type="line"/>
      <point x="589" y="18"/>
      <point x="504" y="11"/>
      <point x="447" y="11" type="curve" smooth="yes"/>
      <point x="246" y="11"/>
      <point x="185" y="97"/>
      <point x="185" y="345" type="curve" smooth="yes"/>
      <point x="185" y="591"/>
      <point x="245" y="679"/>
      <point x="422" y="679" type="curve" smooth="yes"/>
      <point x="559" y="679"/>
      <point x="631" y="626"/>
      <point x="631" y="503" type="curve" smooth="yes"/>
      <point x="631" y="428"/>
      <point x="608" y="366"/>
      <point x="498" y="366" type="curve" smooth="yes"/>
      <point x="148" y="366" type="line" smooth="yes"/>
      <point x="73" y="366"/>
      <point x="42" y="402"/>
      <point x="55" y="485" type="curve"/>
      <point x="33" y="485" type="line"/>
      <point x="20" y="376"/>
      <point x="65" y="344"/>
    </contour>
  </outline>
</glyph>
<glyph name="eltail-cy" format="2">
  <advance width="537"/>
  <unicode hex="04C6"/>
  <outline>
    <contour>
      <point x="440" y="-143" type="line"/>
      <point x="459" y="-143" type="line"/>
      <point x="495" y="1" type="line"/>
      <point x="495" y="20" type="line"/>
      <point x="426" y="20" type="line"/>
      <point x="426" y="0" type="line"/>
      <point x="470" y="0" type="line"/>
    </contour>
    <component base="el-cy"/>
  </outline>
</glyph>
<glyph name="Enhook-cy" format="2">
  <advance width="664"/>
  <unicode hex="04C7"/>
  <outline>
    <contour>
      <point x="128" y="690" type="line"/>
      <point x="103" y="690" type="line"/>
      <point x="103" y="0" type="line"/>
      <point x="128" y="0" type="line"/>
    </contour>
    <contour>
      <point x="540" y="381" type="line"/>
      <point x="120" y="381" type="line"/>
      <point x="120" y="359" type="line"/>
      <point x="540" y="359" type="line"/>
    </contour>
    <contour>
      <point x="529" y="690" type="line"/>
      <point x="529" y="46" type="line" smooth="yes"/>
      <point x="529" y="-81"/>
      <point x="496" y="-135"/>
      <point x="350" y="-135" type="curve"/>
      <point x="350" y="-152" type="line"/>
      <point x="507" y="-161"/>
      <point x="554" y="-94"/>
      <point x="554" y="45" type="curve" smooth="yes"/>
      <point x="554" y="690" type="line"/>
    </contour>
  </outline>
</glyph>
<glyph name="entail-cy" format="2">
  <advance width="566"/>
  <unicode hex="04CA"/>
  <outline>
    <contour>
      <point x="470" y="-143" type="line"/>
      <point x="489" y="-143" type="line"/>
      <point x="525" y="1" type="line"/>
      <point x="525" y="20" type="line"/>
      <point x="456" y="20" type="line"/>
      <point x="456" y="0" type="line"/>
      <point x="500" y="0" type="line"/>
    </contour>
    <component base="en-cy"/>
  </outline>
</glyph>
<glyph name="Chekhakassian-cy" format="2">
  <advance width="607"/>
  <unicode hex="04CB"/>
  <outline>
    <contour>
      <point x="395" y="22" type="line"/>
      <point x="395" y="0" type="line"/>
      <point x="497" y="0" type="line"/>
      <point x="497" y="22" type="line"/>
    </contour>
    <contour>
      <point x="395" y="7" type="line"/>
      <point x="401" y="-151" type="line"/>
      <point x="419" y="-151" type="line"/>
      <point x="420" y="7" type="line"/>
    </contour>
    <component base="Che-cy" xOffset="-5"/>
  </outline>
</glyph>
<glyph name="palochka-cy" format="2">
  <advance width="220"/>
  <unicode hex="04CF"/>
  <anchor x="122" y="0" name="ogonek"/>
  <anchor x="109" y="558" name="top"/>
  <outline>
    <contour>
      <point x="122" y="690" type="line"/>
      <point x="98" y="690" type="line"/>
      <point x="98" y="0" type="line"/>
      <point x="122" y="0" type="line"/>
    </contour>
  </outline>
</glyph>
<glyph name="Gedescender-cy" format="2">
  <advance width="503"/>
  <unicode hex="04F6"/>
  <outline>
    <contour>
      <point x="202" y="7" type="line"/>
      <point x="178" y="7" type="line"/>
      <point x="184" y="-151" type="line"/>
      <point x="202" y="-151" type="line"/>
    </contour>
    <contour>
      <point x="202" y="22" type="line"/>
      <point x="100" y="22" type="line"/>
      <point x="100" y="0" type="line"/>
      <point x="202" y="0" type="line"/>
    </contour>
    <component base="Ge-cy"/>
  </outline>
</glyph>
<glyph name="hahook-cy" format="2">
  <advance width="510"/>
  <unicode hex="04FD"/>
  <outline>
    <contour>
      <point x="266" y="-158" type="line"/>
      <point x="406" y="-162"/>
      <point x="464" y="-109"/>
      <point x="464" y="-12" type="curve" smooth="yes"/>
      <point x="464" y="44"/>
      <point x="419" y="104"/>
      <point x="289" y="252" type="curve"/>
      <point x="463" y="480" type="line"/>
      <point x="434" y="480" type="line"/>
      <point x="260" y="252" type="line"/>
      <point x="366" y="128"/>
      <point x="439" y="53"/>
      <point x="439" y="-14" type="curve" smooth="yes"/>
      <point x="439" y="-110"/>
      <point x="375" y="-138"/>
      <point x="266" y="-141" type="curve"/>
    </contour>
    <contour>
      <point x="32" y="0" type="line"/>
      <point x="61" y="0" type="line"/>
      <point x="246" y="252" type="line"/>
      <point x="72" y="480" type="line"/>
      <point x="43" y="480" type="line"/>
      <point x="217" y="252" type="line"/>
    </contour>
    <contour>
      <point x="233" y="242" type="line"/>
      <point x="280" y="242" type="line"/>
      <point x="280" y="263" type="line"/>
      <point x="233" y="263" type="line"/>
    </contour>
  </outline>
</glyph>
<glyph name="elhook-cy" format="2">
  <advance width="600"/>
  <unicode hex="0513"/>
  <outline>
    <contour>
      <point x="429" y="480" type="line"/>
      <point x="267" y="480" type="line" smooth="yes"/>
      <point x="203" y="480"/>
      <point x="176" y="449"/>
      <point x="168" y="390" type="curve" smooth="yes"/>
      <point x="160" y="331"/>
      <point x="153" y="184"/>
      <point x="111" y="100" type="curve" smooth="yes"/>
      <point x="96" y="70"/>
      <point x="70" y="37"/>
      <point x="23" y="16" type="curve"/>
      <point x="27" y="-5" type="line"/>
      <point x="75" y="10"/>
      <point x="110" y="48"/>
      <point x="131" y="89" type="curve" smooth="yes"/>
      <point x="172" y="170"/>
      <point x="180" y="291"/>
      <point x="191" y="389" type="curve" smooth="yes"/>
      <point x="196" y="435"/>
      <point x="217" y="459"/>
      <point x="265" y="459" type="curve" smooth="yes"/>
      <point x="429" y="459" type="line"/>
    </contour>
    <contour>
      <point x="442" y="45" type="curve" smooth="yes"/>
      <point x="442" y="480" type="line"/>
      <point x="418" y="480" type="line"/>
      <point x="418" y="46" type="line" smooth="yes"/>
      <point x="418" y="-81"/>
      <point x="391" y="-135"/>
      <point x="269" y="-135" type="curve"/>
      <point x="269" y="-152" type="line"/>
      <point x="403" y="-161"/>
      <point x="442" y="-94"/>
    </contour>
  </outline>
</glyph>
<glyph name="Pedescender-cy" format="2">
  <advance width="674"/>
  <unicode hex="0524"/>
  <outline>
    <contour>
      <point x="635" y="22" type="line"/>
      <point x="533" y="22" type="line"/>
      <point x="533" y="0" type="line"/>
      <point x="635" y="0" type="line"/>
    </contour>
    <contour>
      <point x="635" y="7" type="line"/>
      <point x="611" y="7" type="line"/>
      <point x="617" y="-151" type="line"/>
      <point x="635" y="-151" type="line"/>
    </contour>
    <component base="Pe-cy"/>
  </outline>
</glyph>
<glyph name="Shhadescender-cy" format="2">
  <advance width="634"/>
  <unicode hex="0526"/>
  <outline>
    <contour>
      <point x="601" y="22" type="line"/>
      <point x="509" y="22" type="line"/>
      <point x="509" y="0" type="line"/>
      <point x="601" y="0" type="line"/>
    </contour>
    <contour>
      <point x="601" y="7" type="line"/>
      <point x="577" y="7" type="line"/>
      <point x="583" y="-151" type="line"/>
      <point x="601" y="-151" type="line"/>
    </contour>
    <component base="Shha-cy"/>
  </outline>
</glyph>
<glyph name="shhadescender-cy" format="2">
  <advance width="569"/>
  <unicode hex="0527"/>
  <outline>
    <contour>
      <point x="531" y="21" type="line"/>
      <point x="465" y="21" type="line"/>
      <point x="465" y="0" type="line"/>
      <point x="531" y="0" type="line"/>
    </contour>
    <contour>
      <point x="531" y="5" type="line"/>
      <point x="508" y="5" type="line"/>
      <point x="514" y="-143" type="line"/>
      <point x="531" y="-143" type="line"/>
    </contour>
    <component base="shha-cy"/>
  </outline>
</glyph>
<glyph name="EnLeftHook-cy" format="2">
  <advance width="753"/>
  <unicode hex="0528"/>
  <outline>
    <contour>
      <point x="224" y="690" type="line"/>
      <point x="199" y="690" type="line"/>
      <point x="199" y="0" type="line"/>
      <point x="224" y="0" type="line"/>
    </contour>
    <contour>
      <point x="636" y="381" type="line"/>
      <point x="216" y="381" type="line"/>
      <point x="216" y="359" type="line"/>
      <point x="636" y="359" type="line"/>
    </contour>
    <contour>
      <point x="650" y="690" type="line"/>
      <point x="625" y="690" type="line"/>
      <point x="625" y="0" type="line"/>
      <point x="650" y="0" type="line"/>
    </contour>
    <contour>
      <point x="224" y="570" type="line"/>
      <point x="199" y="570" type="line"/>
      <point x="199" y="-4" type="line" smooth="yes"/>
      <point x="199" y="-71"/>
      <point x="166" y="-104"/>
      <point x="99" y="-104" type="curve" smooth="yes"/>
      <point x="41" y="-104" type="line"/>
      <point x="38" y="-120" type="line"/>
      <point x="56" y="-123"/>
      <point x="84" y="-126"/>
      <point x="102" y="-126" type="curve" smooth="yes"/>
      <point x="184" y="-126"/>
      <point x="224" y="-85"/>
      <point x="224" y="-5" type="curve" smooth="yes"/>
    </contour>
  </outline>
</glyph>
<glyph name="enlefthook-cy" format="2">
  <advance width="600"/>
  <unicode hex="0529"/>
  <outline>
    <contour>
      <point x="-55" y="-152" type="line"/>
      <point x="79" y="-161"/>
      <point x="118" y="-94"/>
      <point x="118" y="45" type="curve" smooth="yes"/>
      <point x="118" y="480" type="line"/>
      <point x="94" y="480" type="line"/>
      <point x="94" y="46" type="line" smooth="yes"/>
      <point x="94" y="-81"/>
      <point x="67" y="-135"/>
      <point x="-55" y="-135" type="curve"/>
    </contour>
    <contour>
      <point x="112" y="246" type="line"/>
      <point x="457" y="246" type="line"/>
      <point x="457" y="267" type="line"/>
      <point x="112" y="267" type="line"/>
    </contour>
    <contour>
      <point x="448" y="0" type="line"/>
      <point x="472" y="0" type="line"/>
      <point x="472" y="480" type="line"/>
      <point x="448" y="480" type="line"/>
    </contour>
  </outline>
</glyph>
<glyph name="Eldescender-cy" format="2">
  <advance width="644"/>
  <unicode hex="052E"/>
  <outline>
    <contour>
      <point x="606" y="22" type="line"/>
      <point x="504" y="22" type="line"/>
      <point x="504" y="0" type="line"/>
      <point x="606" y="0" type="line"/>
    </contour>
    <contour>
      <point x="606" y="7" type="line"/>
      <point x="582" y="7" type="line"/>
      <point x="588" y="-151" type="line"/>
      <point x="606" y="-151" type="line"/>
    </contour>
    <component base="El-cy"/>
  </outline>
</glyph>
<glyph name="eldescender-cy" format="2">
  <advance width="537"/>
  <unicode hex="052F"/>
  <outline>
    <contour>
      <point x="495" y="4" type="line"/>
      <point x="472" y="4" type="line"/>
      <point x="478" y="-144" type="line"/>
      <point x="495" y="-144" type="line"/>
    </contour>
    <contour>
      <point x="495" y="20" type="line"/>
      <point x="429" y="20" type="line"/>
      <point x="429" y="-1" type="line"/>
      <point x="495" y="-1" type="line"/>
    </contour>
    <component base="el-cy"/>
  </outline>
</glyph>
<glyph name="perthousand" format="2">
  <advance width="1242"/>
  <unicode hex="2030"/>
  <outline>
    <contour>
      <point x="211" y="702" type="curve" smooth="yes"/>
      <point x="99" y="702"/>
      <point x="61" y="638"/>
      <point x="61" y="498" type="curve" smooth="yes"/>
      <point x="61" y="358"/>
      <point x="99" y="294"/>
      <point x="211" y="294" type="curve" smooth="yes"/>
      <point x="323" y="294"/>
      <point x="361" y="358"/>
      <point x="361" y="498" type="curve" smooth="yes"/>
      <point x="361" y="638"/>
      <point x="323" y="702"/>
    </contour>
    <contour>
      <point x="211" y="683" type="curve" smooth="yes"/>
      <point x="307" y="683"/>
      <point x="338" y="626"/>
      <point x="338" y="498" type="curve" smooth="yes"/>
      <point x="338" y="370"/>
      <point x="307" y="313"/>
      <point x="211" y="313" type="curve" smooth="yes"/>
      <point x="115" y="313"/>
      <point x="84" y="370"/>
      <point x="84" y="498" type="curve" smooth="yes"/>
      <point x="84" y="626"/>
      <point x="115" y="683"/>
    </contour>
    <contour>
      <point x="692" y="690" type="line"/>
      <point x="668" y="690" type="line"/>
      <point x="188" y="0" type="line"/>
      <point x="212" y="0" type="line"/>
    </contour>
    <contour>
      <point x="672" y="401" type="curve" smooth="yes"/>
      <point x="560" y="401"/>
      <point x="522" y="337"/>
      <point x="522" y="197" type="curve" smooth="yes"/>
      <point x="522" y="57"/>
      <point x="560" y="-7"/>
      <point x="672" y="-7" type="curve" smooth="yes"/>
      <point x="784" y="-7"/>
      <point x="822" y="57"/>
      <point x="822" y="197" type="curve" smooth="yes"/>
      <point x="822" y="337"/>
      <point x="784" y="401"/>
    </contour>
    <contour>
      <point x="672" y="382" type="curve" smooth="yes"/>
      <point x="768" y="382"/>
      <point x="799" y="325"/>
      <point x="799" y="197" type="curve" smooth="yes"/>
      <point x="799" y="69"/>
      <point x="768" y="12"/>
      <point x="672" y="12" type="curve" smooth="yes"/>
      <point x="576" y="12"/>
      <point x="545" y="69"/>
      <point x="545" y="197" type="curve" smooth="yes"/>
      <point x="545" y="325"/>
      <point x="576" y="382"/>
    </contour>
    <contour>
      <point x="1029" y="401" type="curve" smooth="yes"/>
      <point x="917" y="401"/>
      <point x="879" y="337"/>
      <point x="879" y="197" type="curve" smooth="yes"/>
      <point x="879" y="57"/>
      <point x="917" y="-7"/>
      <point x="1029" y="-7" type="curve" smooth="yes"/>
      <point x="1141" y="-7"/>
      <point x="1179" y="57"/>
      <point x="1179" y="197" type="curve" smooth="yes"/>
      <point x="1179" y="337"/>
      <point x="1141" y="401"/>
    </contour>
    <contour>
      <point x="1029" y="382" type="curve" smooth="yes"/>
      <point x="1125" y="382"/>
      <point x="1156" y="325"/>
      <point x="1156" y="197" type="curve" smooth="yes"/>
      <point x="1156" y="69"/>
      <point x="1125" y="12"/>
      <point x="1029" y="12" type="curve" smooth="yes"/>
      <point x="933" y="12"/>
      <point x="902" y="69"/>
      <point x="902" y="197" type="curve" smooth="yes"/>
      <point x="902" y="325"/>
      <point x="933" y="382"/>
    </contour>
  </outline>
</glyph>
<glyph name="guilsinglleft" format="2">
  <advance width="225"/>
  <unicode hex="2039"/>
  <outline>
    <contour>
      <point x="184" y="454" type="line"/>
      <point x="21" y="255" type="line"/>
      <point x="21" y="247" type="line"/>
      <point x="185" y="46" type="line"/>
      <point x="197" y="56" type="line"/>
      <point x="48" y="251" type="line"/>
      <point x="196" y="444" type="line"/>
    </contour>
  </outline>
</glyph>
<glyph name="zerosuperior" format="2">
  <advance width="406"/>
  <unicode hex="2070"/>
  <outline>
    <contour>
      <point x="203" y="753" type="curve" smooth="yes"/>
      <point x="109" y="753"/>
      <point x="74" y="690"/>
      <point x="74" y="550" type="curve" smooth="yes"/>
      <point x="74" y="410"/>
      <point x="109" y="347"/>
      <point x="203" y="347" type="curve" smooth="yes"/>
      <point x="297" y="347"/>
      <point x="332" y="410"/>
      <point x="332" y="550" type="curve" smooth="yes"/>
      <point x="332" y="690"/>
      <point x="297" y="753"/>
    </contour>
    <contour>
      <point x="203" y="733" type="curve" smooth="yes"/>
      <point x="279" y="733"/>
      <point x="308" y="675"/>
      <point x="308" y="550" type="curve" smooth="yes"/>
      <point x="308" y="425"/>
      <point x="279" y="367"/>
      <point x="203" y="367" type="curve" smooth="yes"/>
      <point x="127" y="367"/>
      <point x="98" y="425"/>
      <point x="98" y="550" type="curve" smooth="yes"/>
      <point x="98" y="675"/>
      <point x="127" y="733"/>
    </contour>
  </outline>
</glyph>
<glyph name="eightsuperior" format="2">
  <advance width="433"/>
  <unicode hex="2078"/>
  <outline>
    <contour>
      <point x="217" y="749" type="curve" smooth="yes"/>
      <point x="126" y="749"/>
      <point x="89" y="715"/>
      <point x="89" y="646" type="curve" smooth="yes"/>
      <point x="89" y="591"/>
      <point x="107" y="563"/>
      <point x="145" y="556" type="curve"/>
      <point x="145" y="554" type="line"/>
      <point x="100" y="547"/>
      <point x="82" y="516"/>
      <point x="82" y="450" type="curve" smooth="yes"/>
      <point x="82" y="378"/>
      <point x="121" y="347"/>
      <point x="217" y="347" type="curve" smooth="yes"/>
      <point x="314" y="347"/>
      <point x="352" y="378"/>
      <point x="352" y="450" type="curve" smooth="yes"/>
      <point x="352" y="516"/>
      <point x="333" y="547"/>
      <point x="288" y="554" type="curve"/>
      <point x="288" y="556" type="line"/>
      <point x="326" y="563"/>
      <point x="344" y="591"/>
      <point x="344" y="646" type="curve" smooth="yes"/>
      <point x="344" y="715"/>
      <point x="308" y="749"/>
    </contour>
    <contour>
      <point x="217" y="544" type="curve" smooth="yes"/>
      <point x="305" y="544"/>
      <point x="327" y="533"/>
      <point x="327" y="450" type="curve" smooth="yes"/>
      <point x="327" y="391"/>
      <point x="301" y="369"/>
      <point x="217" y="369" type="curve" smooth="yes"/>
      <point x="134" y="369"/>
      <point x="106" y="391"/>
      <point x="106" y="450" type="curve" smooth="yes"/>
      <point x="106" y="532"/>
      <point x="127" y="544"/>
    </contour>
    <contour>
      <point x="217" y="727" type="curve" smooth="yes"/>
      <point x="295" y="727"/>
      <point x="319" y="707"/>
      <point x="319" y="646" type="curve" smooth="yes"/>
      <point x="319" y="579"/>
      <point x="302" y="565"/>
      <point x="217" y="565" type="curve" smooth="yes"/>
      <point x="135" y="565"/>
      <point x="114" y="577"/>
      <point x="114" y="646" type="curve" smooth="yes"/>
      <point x="114" y="707"/>
      <point x="140" y="727"/>
    </contour>
  </outline>
</glyph>
<glyph name="liraTurkish" format="2">
  <advance width="527"/>
  <unicode hex="20BA"/>
  <outline>
    <contour>
      <point x="463" y="356" type="curve"/>
      <point x="445" y="348" type="line"/>
      <point x="451" y="312"/>
      <point x="452" y="277"/>
      <point x="452" y="235" type="curve" smooth="yes"/>
      <point x="452" y="72"/>
      <point x="378" y="14"/>
      <point x="240" y="14" type="curve" smooth="yes"/>
      <point x="215" y="14"/>
      <point x="178" y="16"/>
      <point x="134" y="17" type="curve"/>
      <point x="121" y="0" type="line"/>
      <point x="169" y="-9"/>
      <point x="212" y="-9"/>
      <point x="240" y="-9" type="curve" smooth="yes"/>
      <point x="394" y="-9"/>
      <point x="475" y="61"/>
      <point x="475" y="234" type="curve" smooth="yes"/>
      <point x="475" y="259"/>
      <point x="474" y="310"/>
    </contour>
    <contour>
      <point x="146" y="690" type="line"/>
      <point x="121" y="690" type="line"/>
      <point x="121" y="0" type="line"/>
      <point x="146" y="0" type="line"/>
    </contour>
    <contour>
      <point x="339" y="421" type="line"/>
      <point x="34" y="245" type="line"/>
      <point x="34" y="221" type="line"/>
      <point x="339" y="398" type="line"/>
    </contour>
    <contour>
      <point x="339" y="541" type="line"/>
      <point x="34" y="365" type="line"/>
      <point x="34" y="341" type="line"/>
      <point x="339" y="518" type="line"/>
    </contour>
  </outline>
</glyph>
<glyph name="trademark" format="2">
  <advance width="947"/>
  <unicode hex="2122"/>
  <outline>
    <contour>
      <point x="831" y="696" type="curve" smooth="yes"/>
      <point x="800" y="696" type="line" smooth="yes"/>
      <point x="795" y="696"/>
      <point x="791" y="693"/>
      <point x="789" y="688" type="curve"/>
      <point x="682" y="422" type="line" smooth="yes"/>
      <point x="675" y="404"/>
      <point x="668" y="387"/>
      <point x="661" y="369" type="curve"/>
      <point x="646" y="369" type="line"/>
      <point x="639" y="386"/>
      <point x="633" y="404"/>
      <point x="626" y="421" type="curve" smooth="yes"/>
      <point x="517" y="688" type="line"/>
      <point x="516" y="693"/>
      <point x="512" y="696"/>
      <point x="507" y="696" type="curve" smooth="yes"/>
      <point x="476" y="696" type="line" smooth="yes"/>
      <point x="469" y="696"/>
      <point x="465" y="691"/>
      <point x="464" y="684" type="curve" smooth="yes"/>
      <point x="447" y="316" type="line"/>
      <point x="469" y="316" type="line"/>
      <point x="486" y="677" type="line"/>
      <point x="500" y="677" type="line"/>
      <point x="629" y="359" type="line" smooth="yes"/>
      <point x="630" y="354"/>
      <point x="634" y="351"/>
      <point x="640" y="351" type="curve" smooth="yes"/>
      <point x="667" y="351" type="line" smooth="yes"/>
      <point x="673" y="351"/>
      <point x="677" y="354"/>
      <point x="678" y="359" type="curve" smooth="yes"/>
      <point x="807" y="677" type="line"/>
      <point x="821" y="677" type="line"/>
      <point x="838" y="316" type="line"/>
      <point x="860" y="316" type="line"/>
      <point x="843" y="684" type="line" smooth="yes"/>
      <point x="843" y="691"/>
      <point x="838" y="696"/>
    </contour>
    <contour>
      <point x="243" y="696" type="line"/>
      <point x="221" y="696" type="line"/>
      <point x="221" y="316" type="line"/>
      <point x="243" y="316" type="line"/>
    </contour>
    <contour>
      <point x="387" y="696" type="line"/>
      <point x="78" y="696" type="line"/>
      <point x="78" y="677" type="line"/>
      <point x="387" y="677" type="line"/>
    </contour>
  </outline>
</glyph>
<glyph name="minus" format="2">
  <advance width="589"/>
  <unicode hex="2212"/>
  <outline>
    <contour>
      <point x="503" y="307" type="line"/>
      <point x="86" y="307" type="line"/>
      <point x="86" y="285" type="line"/>
      <point x="503" y="285" type="line"/>
    </contour>
  </outline>
</glyph>
<glyph name="approxequal" format="2">
  <advance width="593"/>
  <unicode hex="2248"/>
  <outline>
    <contour>
      <point x="164" y="243" type="curve" smooth="yes"/>
      <point x="118" y="243"/>
      <point x="86" y="224"/>
      <point x="87" y="154" type="curve"/>
      <point x="107" y="154" type="line"/>
      <point x="107" y="210"/>
      <point x="129" y="220"/>
      <point x="162" y="220" type="curve" smooth="yes"/>
      <point x="245" y="219"/>
      <point x="333" y="153"/>
      <point x="427" y="153" type="curve" smooth="yes"/>
      <point x="486" y="153"/>
      <point x="507" y="179"/>
      <point x="507" y="238" type="curve"/>
      <point x="487" y="238" type="line"/>
      <point x="487" y="184"/>
      <point x="465" y="176"/>
      <point x="432" y="176" type="curve" smooth="yes"/>
      <point x="339" y="177"/>
      <point x="251" y="243"/>
    </contour>
    <contour>
      <point x="164" y="433" type="curve" smooth="yes"/>
      <point x="118" y="433"/>
      <point x="86" y="414"/>
      <point x="87" y="344" type="curve"/>
      <point x="107" y="344" type="line"/>
      <point x="107" y="400"/>
      <point x="129" y="410"/>
      <point x="162" y="410" type="curve" smooth="yes"/>
      <point x="245" y="409"/>
      <point x="333" y="343"/>
      <point x="427" y="343" type="curve" smooth="yes"/>
      <point x="486" y="343"/>
      <point x="507" y="369"/>
      <point x="507" y="428" type="curve"/>
      <point x="487" y="428" type="line"/>
      <point x="487" y="374"/>
      <point x="465" y="366"/>
      <point x="432" y="366" type="curve" smooth="yes"/>
      <point x="339" y="367"/>
      <point x="251" y="433"/>
    </contour>
  </outline>
</glyph>
<glyph name="breveacute" format="2">
  <advance width="357"/>
  <anchor x="180" y="554" name="_top"/>
  <outline>
    <contour>
      <point x="297" y="687" type="line"/>
      <point x="297" y="627"/>
      <point x="251" y="593"/>
      <point x="180" y="593" type="curve" smooth="yes"/>
      <point x="107" y="593"/>
      <point x="61" y="627"/>
      <point x="61" y="687" type="curve"/>
      <point x="43" y="683" type="line"/>
      <point x="43" y="612"/>
      <point x="96" y="569"/>
      <point x="180" y="569" type="curve" smooth="yes"/>
      <point x="263" y="569"/>
      <point x="315" y="612"/>
      <point x="315" y="683" type="curve"/>
    </contour>
    <contour>
      <point x="248" y="794" type="line"/>
      <point x="146" y="692" type="line"/>
      <point x="158" y="680" type="line"/>
      <point x="264" y="778" type="line"/>
    </contour>
  </outline>
</glyph>
<glyph name="circumflexacute" format="2">
  <advance width="392"/>
  <anchor x="197" y="554" name="_top"/>
  <outline>
    <contour>
      <point x="205" y="691" type="line"/>
      <point x="187" y="691" type="line"/>
      <point x="60" y="587" type="line"/>
      <point x="71" y="575" type="line"/>
      <point x="192" y="666" type="line"/>
      <point x="200" y="666" type="line"/>
      <point x="322" y="575" type="line"/>
      <point x="332" y="587" type="line"/>
    </contour>
    <contour>
      <point x="383" y="776" type="line"/>
      <point x="281" y="674" type="line"/>
      <point x="293" y="662" type="line"/>
      <point x="399" y="760" type="line"/>
    </contour>
  </outline>
</glyph>
<glyph name="circumflexgrave" format="2">
  <advance width="392"/>
  <anchor x="197" y="554" name="_top"/>
  <outline>
    <contour>
      <point x="187" y="691" type="line"/>
      <point x="60" y="587" type="line"/>
      <point x="70" y="575" type="line"/>
      <point x="192" y="666" type="line"/>
      <point x="200" y="666" type="line"/>
      <point x="321" y="575" type="line"/>
      <point x="332" y="587" type="line"/>
      <point x="205" y="691" type="line"/>
    </contour>
    <contour>
      <point x="9" y="776" type="line"/>
      <point x="-7" y="760" type="line"/>
      <point x="99" y="662" type="line"/>
      <point x="111" y="674" type="line"/>
    </contour>
  </outline>
</glyph>
<glyph name="circumflextilde" format="2">
  <advance width="392"/>
  <anchor x="197" y="554" name="_top"/>
  <outline>
    <contour>
      <point x="205" y="691" type="line"/>
      <point x="187" y="691" type="line"/>
      <point x="60" y="587" type="line"/>
      <point x="70" y="575" type="line"/>
      <point x="192" y="666" type="line"/>
      <point x="200" y="666" type="line"/>
      <point x="321" y="575" type="line"/>
      <point x="332" y="587" type="line"/>
    </contour>
    <contour>
      <point x="137" y="795" type="curve" smooth="yes"/>
      <point x="93" y="799"/>
      <point x="64" y="768"/>
      <point x="66" y="710" type="curve"/>
      <point x="82" y="710" type="line"/>
      <point x="82" y="757"/>
      <point x="98" y="778"/>
      <point x="137" y="774" type="curve" smooth="yes"/>
      <point x="185" y="769"/>
      <point x="197" y="715"/>
      <point x="261" y="709" type="curve" smooth="yes"/>
      <point x="305" y="705"/>
      <point x="334" y="735"/>
      <point x="332" y="790" type="curve"/>
      <point x="316" y="790" type="line"/>
      <point x="316" y="745"/>
      <point x="300" y="727"/>
      <point x="261" y="730" type="curve" smooth="yes"/>
      <point x="204" y="734"/>
      <point x="194" y="790"/>
    </contour>
  </outline>
</glyph>
<glyph name="dblgrave" format="2">
  <advance width="410"/>
  <anchor x="249" y="554" name="_top"/>
  <outline>
    <contour>
      <point x="235" y="715" type="line"/>
      <point x="213" y="700" type="line"/>
      <point x="330" y="548" type="line"/>
      <point x="346" y="558" type="line"/>
    </contour>
    <contour>
      <point x="95" y="715" type="line"/>
      <point x="73" y="700" type="line"/>
      <point x="190" y="548" type="line"/>
      <point x="206" y="558" type="line"/>
    </contour>
  </outline>
</glyph>
<glyph name="euro.BRACKET.144" format="2">
  <advance width="648"/>
  <guideline x="446" y="254" angle="249.015"/>
  <outline>
    <contour>
      <point x="418" y="702" type="curve" smooth="yes"/>
      <point x="229" y="702"/>
      <point x="163" y="578"/>
      <point x="163" y="345" type="curve" smooth="yes"/>
      <point x="163" y="112"/>
      <point x="229" y="-12"/>
      <point x="418" y="-12" type="curve" smooth="yes"/>
      <point x="494" y="-12"/>
      <point x="539" y="-6"/>
      <point x="586" y="6" type="curve"/>
      <point x="580" y="24" type="line"/>
      <point x="534" y="15"/>
      <point x="490" y="11"/>
      <point x="418" y="11" type="curve" smooth="yes"/>
      <point x="248" y="11"/>
      <point x="189" y="127"/>
      <point x="189" y="345" type="curve" smooth="yes"/>
      <point x="189" y="563"/>
      <point x="248" y="679"/>
      <point x="418" y="679" type="curve" smooth="yes"/>
      <point x="489" y="679"/>
      <point x="519" y="676"/>
      <point x="572" y="667" type="curve"/>
      <point x="578" y="685" type="line"/>
      <point x="529" y="697"/>
      <point x="492" y="702"/>
    </contour>
    <contour>
      <point x="429" y="297" type="line"/>
      <point x="68" y="297" type="line"/>
      <point x="68" y="276" type="line"/>
      <point x="421" y="276" type="line"/>
    </contour>
    <contour>
      <point x="482" y="436" type="line"/>
      <point x="68" y="436" type="line"/>
      <point x="68" y="415" type="line"/>
      <point x="474" y="415" type="line"/>
    </contour>
  </outline>
</glyph>
<glyph name="euro.rvrn" format="2">
  <advance width="648"/>
  <outline>
    <contour>
      <point x="191" y="286" type="curve"/>
      <point x="165" y="286" type="line"/>
      <point x="176" y="91"/>
      <point x="246" y="-12"/>
      <point x="418" y="-12" type="curve" smooth="yes"/>
      <point x="494" y="-12"/>
      <point x="539" y="-6"/>
      <point x="586" y="6" type="curve"/>
      <point x="580" y="24" type="line"/>
      <point x="534" y="15"/>
      <point x="490" y="11"/>
      <point x="418" y="11" type="curve" smooth="yes"/>
      <point x="264" y="11"/>
      <point x="201" y="106"/>
    </contour>
    <contour>
      <point x="429" y="297" type="line"/>
      <point x="68" y="297" type="line"/>
      <point x="68" y="276" type="line"/>
      <point x="421" y="276" type="line"/>
    </contour>
    <contour>
      <point x="482" y="436" type="line"/>
      <point x="68" y="436" type="line"/>
      <point x="68" y="415" type="line"/>
      <point x="474" y="415" type="line"/>
    </contour>
    <contour>
      <point x="166" y="423" type="curve"/>
      <point x="192" y="423" type="line"/>
      <point x="206" y="590"/>
      <point x="269" y="679"/>
      <point x="418" y="679" type="curve" smooth="yes"/>
      <point x="489" y="679"/>
      <point x="519" y="676"/>
      <point x="572" y="667" type="curve"/>
      <point x="578" y="685" type="line"/>
      <point x="529" y="697"/>
      <point x="492" y="702"/>
      <point x="418" y="702" type="curve" smooth="yes"/>
      <point x="251" y="702"/>
      <point x="180" y="605"/>
    </contour>
  </outline>
</glyph>
<glyph name="f_t" format="2">
  <advance width="665"/>
  <outline>
    <contour>
      <point x="247" y="714" type="curve" smooth="yes"/>
      <point x="155" y="714"/>
      <point x="122" y="669"/>
      <point x="122" y="581" type="curve" smooth="yes"/>
      <point x="122" y="0" type="line"/>
      <point x="146" y="0" type="line"/>
      <point x="146" y="581" type="line" smooth="yes"/>
      <point x="146" y="663"/>
      <point x="175" y="692"/>
      <point x="255" y="692" type="curve" smooth="yes"/>
      <point x="365" y="692" type="line"/>
      <point x="365" y="710" type="line"/>
      <point x="331" y="713"/>
      <point x="275" y="714"/>
    </contour>
    <contour>
      <point x="463" y="631" type="line"/>
      <point x="439" y="631" type="line"/>
      <point x="439" y="95" type="line" smooth="yes"/>
      <point x="439" y="30"/>
      <point x="475" y="-6"/>
      <point x="549" y="-6" type="curve" smooth="yes"/>
      <point x="566" y="-6"/>
      <point x="607" y="-4"/>
      <point x="634" y="0" type="curve"/>
      <point x="631" y="16" type="line"/>
      <point x="543" y="16" type="line" smooth="yes"/>
      <point x="492" y="16"/>
      <point x="463" y="43"/>
      <point x="463" y="96" type="curve" smooth="yes"/>
    </contour>
    <contour>
      <point x="641" y="480" type="line"/>
      <point x="128" y="480" type="line"/>
      <point x="35" y="475" type="line"/>
      <point x="35" y="458" type="line"/>
      <point x="641" y="458" type="line"/>
    </contour>
  </outline>
</glyph>
<glyph name="five.osf" format="2">
  <advance width="487"/>
  <outline>
    <contour>
      <point x="414" y="510" type="line"/>
      <point x="102" y="510" type="line"/>
      <point x="86" y="216" type="line" smooth="yes"/>
      <point x="86" y="208"/>
      <point x="91" y="202"/>
      <point x="99" y="202" type="curve" smooth="yes"/>
      <point x="113" y="202" type="line" smooth="yes"/>
      <point x="324" y="202"/>
      <point x="405" y="192"/>
      <point x="405" y="43" type="curve" smooth="yes"/>
      <point x="405" y="-69"/>
      <point x="371" y="-149"/>
      <point x="236" y="-149" type="curve" smooth="yes"/>
      <point x="172" y="-149"/>
      <point x="121" y="-142"/>
      <point x="66" y="-129" type="curve"/>
      <point x="60" y="-147" type="line"/>
      <point x="117" y="-164"/>
      <point x="174" y="-172"/>
      <point x="238" y="-172" type="curve" smooth="yes"/>
      <point x="402" y="-172"/>
      <point x="429" y="-63"/>
      <point x="429" y="43" type="curve" smooth="yes"/>
      <point x="429" y="198"/>
      <point x="350" y="224"/>
      <point x="167" y="224" type="curve" smooth="yes"/>
      <point x="110" y="224" type="line"/>
      <point x="124" y="488" type="line"/>
      <point x="411" y="488" type="line"/>
    </contour>
  </outline>
</glyph>
<glyph name="four.osf" format="2">
  <advance width="555"/>
  <outline>
    <contour>
      <point x="310" y="553" type="line"/>
      <point x="283" y="553" type="line"/>
      <point x="59" y="78" type="line" smooth="yes"/>
      <point x="41" y="41"/>
      <point x="64" y="0"/>
      <point x="105" y="0" type="curve" smooth="yes"/>
      <point x="413" y="0" type="line"/>
      <point x="500" y="4" type="line"/>
      <point x="500" y="22" type="line"/>
      <point x="111" y="22" type="line" smooth="yes"/>
      <point x="84" y="22"/>
      <point x="71" y="47"/>
      <point x="82" y="71" type="curve" smooth="yes"/>
    </contour>
    <contour>
      <point x="428" y="365" type="line"/>
      <point x="410" y="365" type="line"/>
      <point x="403" y="248" type="line"/>
      <point x="403" y="-160" type="line"/>
      <point x="428" y="-160" type="line"/>
    </contour>
  </outline>
</glyph>
<glyph name="macrongrave" format="2">
  <advance width="400"/>
  <anchor x="200" y="554" name="_top"/>
  <outline>
    <contour>
      <point x="70" y="628" type="line"/>
      <point x="70" y="605" type="line"/>
      <point x="330" y="605" type="line"/>
      <point x="330" y="628" type="line"/>
    </contour>
    <contour>
      <point x="142" y="774" type="line"/>
      <point x="126" y="758" type="line"/>
      <point x="232" y="660" type="line"/>
      <point x="244" y="672" type="line"/>
    </contour>
  </outline>
</glyph>
<glyph name="nine.osf" format="2">
  <advance width="541"/>
  <outline>
    <contour>
      <point x="260" y="522" type="curve" smooth="yes"/>
      <point x="103" y="522"/>
      <point x="67" y="431"/>
      <point x="67" y="294" type="curve" smooth="yes"/>
      <point x="67" y="155"/>
      <point x="106" y="84"/>
      <point x="242" y="84" type="curve" smooth="yes"/>
      <point x="337" y="84"/>
      <point x="380" y="111"/>
      <point x="446" y="200" type="curve"/>
      <point x="442" y="216" type="line"/>
      <point x="367" y="128"/>
      <point x="322" y="106"/>
      <point x="244" y="106" type="curve" smooth="yes"/>
      <point x="118" y="106"/>
      <point x="92" y="170"/>
      <point x="92" y="292" type="curve" smooth="yes"/>
      <point x="92" y="419"/>
      <point x="117" y="500"/>
      <point x="260" y="500" type="curve" smooth="yes"/>
      <point x="427" y="500"/>
      <point x="434" y="421"/>
      <point x="434" y="186" type="curve" smooth="yes"/>
      <point x="434" y="-104"/>
      <point x="373" y="-148"/>
      <point x="217" y="-148" type="curve" smooth="yes"/>
      <point x="159" y="-148"/>
      <point x="141" y="-146"/>
      <point x="100" y="-141" type="curve"/>
      <point x="92" y="-159" type="line"/>
      <point x="144" y="-171"/>
      <point x="191" y="-171"/>
      <point x="217" y="-171" type="curve" smooth="yes"/>
      <point x="381" y="-171"/>
      <point x="460" y="-128"/>
      <point x="460" y="174" type="curve" smooth="yes"/>
      <point x="460" y="430"/>
      <point x="448" y="522"/>
    </contour>
  </outline>
</glyph>
<glyph name="notequal.BRACKET.144" format="2">
  <advance width="615"/>
  <outline>
    <contour>
      <point x="437" y="514" type="line"/>
      <point x="160" y="58" type="line"/>
      <point x="179" y="49" type="line"/>
      <point x="456" y="505" type="line"/>
    </contour>
    <component base="equal" xOffset="34"/>
  </outline>
</glyph>
<glyph name="oslash.BRACKET.144" format="2">
  <advance width="560"/>
  <anchor x="280" y="0" name="bottom"/>
  <anchor x="279" y="558" name="top"/>
  <outline>
    <contour>
      <point x="404" y="539" type="line"/>
      <point x="128" y="-52" type="line"/>
      <point x="147" y="-61" type="line"/>
      <point x="423" y="530" type="line"/>
    </contour>
    <component base="o"/>
  </outline>
</glyph>
<glyph name="tildemacron" format="2">
  <advance width="399"/>
  <anchor x="201" y="554" name="_top"/>
  <outline>
    <contour>
      <point x="130" y="667" type="curve" smooth="yes"/>
      <point x="83" y="671"/>
      <point x="53" y="639"/>
      <point x="55" y="578" type="curve"/>
      <point x="72" y="578" type="line"/>
      <point x="72" y="627"/>
      <point x="89" y="649"/>
      <point x="130" y="645" type="curve" smooth="yes"/>
      <point x="180" y="640"/>
      <point x="203" y="583"/>
      <point x="270" y="577" type="curve" smooth="yes"/>
      <point x="317" y="573"/>
      <point x="347" y="604"/>
      <point x="345" y="662" type="curve"/>
      <point x="328" y="662" type="line"/>
      <point x="328" y="615"/>
      <point x="311" y="596"/>
      <point x="270" y="599" type="curve" smooth="yes"/>
      <point x="211" y="603"/>
      <point x="189" y="662"/>
    </contour>
    <contour>
      <point x="318" y="726" type="line"/>
      <point x="318" y="747" type="line"/>
      <point x="82" y="747" type="line"/>
      <point x="82" y="726" type="line"/>
    </contour>
  </outline>
</glyph>
<glyph name="yen.BRACKET.144" format="2">
  <advance width="602"/>
  <outline>
    <contour>
      <point x="548" y="690" type="line"/>
      <point x="520" y="690" type="line"/>
      <point x="343" y="386" type="line" smooth="yes"/>
      <point x="331" y="365"/>
      <point x="316" y="340"/>
      <point x="303" y="318" type="curve"/>
      <point x="298" y="318" type="line"/>
      <point x="285" y="340"/>
      <point x="270" y="365"/>
      <point x="257" y="387" type="curve" smooth="yes"/>
      <point x="80" y="690" type="line"/>
      <point x="52" y="690" type="line"/>
      <point x="292" y="280" type="line"/>
      <point x="309" y="280" type="line"/>
    </contour>
    <contour>
      <point x="313" y="311" type="line"/>
      <point x="288" y="311" type="line"/>
      <point x="288" y="0" type="line"/>
      <point x="313" y="0" type="line"/>
    </contour>
    <contour>
      <point x="511" y="196" type="line"/>
      <point x="95" y="196" type="line"/>
      <point x="95" y="176" type="line"/>
      <point x="511" y="176" type="line"/>
    </contour>
    <contour>
      <point x="511" y="306" type="line"/>
      <point x="95" y="306" type="line"/>
      <point x="95" y="286" type="line"/>
      <point x="511" y="286" type="line"/>
    </contour>
  </outline>
</glyph>
<glyph name="yen.rvrn" format="2">
  <advance width="602"/>
  <outline>
    <contour>
      <point x="548" y="690" type="line"/>
      <point x="520" y="690" type="line"/>
      <point x="343" y="386" type="line" smooth="yes"/>
      <point x="331" y="365"/>
      <point x="316" y="340"/>
      <point x="303" y="318" type="curve"/>
      <point x="298" y="318" type="line"/>
      <point x="285" y="340"/>
      <point x="270" y="365"/>
      <point x="257" y="387" type="curve" smooth="yes"/>
      <point x="80" y="690" type="line"/>
      <point x="52" y="690" type="line"/>
      <point x="283" y="295" type="line"/>
      <point x="318" y="295" type="line"/>
    </contour>
    <contour>
      <point x="313" y="184" type="line"/>
      <point x="288" y="184" type="line"/>
      <point x="288" y="0" type="line"/>
      <point x="313" y="0" type="line"/>
    </contour>
    <contour>
      <point x="511" y="196" type="line"/>
      <point x="95" y="196" type="line"/>
      <point x="95" y="176" type="line"/>
      <point x="511" y="176" type="line"/>
    </contour>
    <contour>
      <point x="511" y="306" type="line"/>
      <point x="95" y="306" type="line"/>
      <point x="95" y="286" type="line"/>
      <point x="511" y="286" type="line"/>
    </contour>
  </outline>
</glyph>
